<?xml version="1.0" encoding="utf-8"?>
<!-- Generator: Adobe Illustrator 16.0.0, SVG Export Plug-In . SVG Version: 6.00 Build 0)  -->
<!DOCTYPE svg PUBLIC "-//W3C//DTD SVG 1.1//EN" "http://www.w3.org/Graphics/SVG/1.1/DTD/svg11.dtd">
<svg version="1.1" id="Layer_1" xmlns="http://www.w3.org/2000/svg" xmlns:xlink="http://www.w3.org/1999/xlink" x="0px" y="0px"
	 width="737.5px" height="5px" viewBox="0 0 737.5 5" enable-background="new 0 0 737.5 5" xml:space="preserve">
<g>
	<path fill="#F5AF33" d="M79.684,4.85c-30.801,0-57.031-0.539-70.82-0.822c-3.923-0.079-6.962-0.143-8.967-0.17l0.014-1
		c2.007,0.028,5.048,0.091,8.974,0.17c20.49,0.423,68.47,1.406,118.057,0.349c45.419-0.97,161.083,0.338,162.246,0.351
		c14.193-0.564,92.639-0.921,167.437-1.131c66.762-0.188,268.212-0.76,280.875-0.76v1c-12.655,0-214.034,0.572-280.75,0.76
		c-74.827,0.211-153.342,0.566-167.548,1.131c-1.188-0.015-116.835-1.319-162.238-0.351C110.731,4.723,94.664,4.85,79.684,4.85z"/>
</g>
</svg>
