<?xml version="1.0" encoding="utf-8"?>
<!-- Generator: Adobe Illustrator 16.0.0, SVG Export Plug-In . SVG Version: 6.00 Build 0)  -->
<!DOCTYPE svg PUBLIC "-//W3C//DTD SVG 1.1//EN" "http://www.w3.org/Graphics/SVG/1.1/DTD/svg11.dtd">
<svg version="1.1" id="Layer_1" xmlns="http://www.w3.org/2000/svg" xmlns:xlink="http://www.w3.org/1999/xlink" x="0px" y="0px"
	 width="734.168px" height="5px" viewBox="0 0 734.168 5" enable-background="new 0 0 734.168 5" xml:space="preserve">
<g>
	<path fill="#F5AF33" d="M384.303,4.932c-40.918,0-74.162-0.172-84.365-0.687C297.265,4.256,29.551,4.625-0.041,4.207l0.014-1
		c29.583,0.416,297.288,0.049,299.988,0.04c23.723,1.194,171.983,0.535,251.637,0.183c14.965-0.066,28.963-0.53,38.152-0.562
		c4.918-0.017,141.89,0.723,144.418,0.723v1c-2.612,0-139.76-0.738-144.919-0.72c-9.155,0.032-22.954,0.494-37.646,0.56
		C506.204,4.63,438.519,4.932,384.303,4.932z"/>
</g>
</svg>
