<?xml version="1.0" encoding="utf-8"?>
<!-- Generator: Adobe Illustrator 16.0.0, SVG Export Plug-In . SVG Version: 6.00 Build 0)  -->
<!DOCTYPE svg PUBLIC "-//W3C//DTD SVG 1.1//EN" "http://www.w3.org/Graphics/SVG/1.1/DTD/svg11.dtd">
<svg version="1.1" id="Layer_1" xmlns="http://www.w3.org/2000/svg" xmlns:xlink="http://www.w3.org/1999/xlink" x="0px" y="0px"
	 width="1200px" height="16px" viewBox="0 0 1200 16" enable-background="new 0 0 1200 16" xml:space="preserve">
<g>
	<path fill="#33BAAF" d="M567.676,15.686c-2.244,0-3.048-3.554-3.979-7.665c-0.543-2.391-1.451-6.395-2.396-6.395
		c-0.943,0-1.852,4.006-2.395,6.399c-0.934,4.108-1.735,7.661-3.979,7.661c-2.239,0-3.044-3.554-3.974-7.665
		c-0.505-2.234-1.446-6.395-2.387-6.395c-0.941,0-1.882,4.162-2.389,6.397c-0.93,4.109-1.73,7.663-3.973,7.663
		c-2.239,0-3.042-3.554-3.972-7.663c-0.505-2.236-1.446-6.397-2.389-6.397c-0.938,0-1.881,4.161-2.386,6.395
		c-0.931,4.111-1.733,7.665-3.975,7.665c-2.24,0-3.044-3.555-3.975-7.667c-0.505-2.233-1.445-6.394-2.386-6.394
		s-1.882,4.16-2.387,6.394c-0.933,4.112-1.734,7.667-3.978,7.667c-2.237,0-3.042-3.554-3.972-7.663
		c-0.505-2.236-1.445-6.397-2.385-6.397c-0.94,0-1.881,4.162-2.388,6.397c-0.929,4.109-1.731,7.663-3.971,7.663
		c-2.241,0-3.044-3.555-3.974-7.667c-0.505-2.234-1.447-6.393-2.384-6.393c-0.939,0-1.879,4.162-2.386,6.396
		c-0.93,4.111-1.73,7.664-3.969,7.664c-2.24,0-3.043-3.554-3.972-7.666c-0.505-2.233-1.447-6.394-2.385-6.394
		s-1.876,4.16-2.381,6.395c-0.929,4.111-1.729,7.665-3.969,7.665c-2.236,0-3.04-3.554-3.969-7.665
		c-0.506-2.234-1.444-6.396-2.384-6.396c-0.938,0-1.877,4.16-2.383,6.394c-0.931,4.112-1.73,7.667-3.972,7.667
		s-3.044-3.555-3.974-7.667c-0.506-2.234-1.446-6.393-2.384-6.393c-0.939,0-1.879,4.161-2.384,6.395
		c-0.932,4.111-1.731,7.665-3.972,7.665c-2.238,0-3.041-3.554-3.971-7.663c-0.505-2.236-1.446-6.397-2.386-6.397
		c-0.938,0-1.877,4.16-2.381,6.394c-0.931,4.112-1.731,7.666-3.973,7.666c-2.236,0-3.04-3.553-3.97-7.661
		c-0.507-2.236-1.448-6.398-2.388-6.398c-0.938,0-1.877,4.159-2.382,6.392c-0.929,4.113-1.729,7.667-3.972,7.667
		c-2.238,0-3.041-3.553-3.971-7.664c-0.504-2.234-1.444-6.395-2.384-6.395c-0.938,0-1.878,4.161-2.385,6.395
		c-0.929,4.111-1.729,7.664-3.97,7.664s-3.04-3.553-3.97-7.664c-0.503-2.235-1.442-6.395-2.382-6.395
		c-0.938,0-1.879,4.161-2.384,6.395c-0.931,4.111-1.732,7.664-3.972,7.664c-2.237,0-3.04-3.553-3.969-7.664
		c-0.505-2.235-1.444-6.395-2.382-6.395c-0.939,0-1.88,4.162-2.385,6.398c-0.928,4.108-1.73,7.661-3.968,7.661
		c-2.236,0-3.039-3.553-3.968-7.661c-0.504-2.236-1.445-6.398-2.383-6.398c-0.939,0-1.879,4.161-2.384,6.395
		c-0.928,4.111-1.732,7.664-3.971,7.664c-2.238,0-3.042-3.553-3.971-7.664c-0.505-2.234-1.444-6.395-2.384-6.395
		c-0.936,0-1.876,4.16-2.38,6.395c-0.929,4.111-1.73,7.664-3.968,7.664c-2.238,0-3.039-3.553-3.968-7.664
		c-0.505-2.235-1.444-6.395-2.381-6.395c-0.938,0-1.877,4.16-2.381,6.395c-0.93,4.111-1.733,7.664-3.97,7.664
		c-2.239,0-3.041-3.553-3.971-7.664c-0.504-2.234-1.445-6.395-2.384-6.395c-0.936,0-1.876,4.16-2.381,6.395
		c-0.928,4.111-1.729,7.664-3.966,7.664c-2.239,0-3.041-3.553-3.968-7.664c-0.504-2.235-1.444-6.395-2.381-6.395
		c-0.936,0-1.875,4.16-2.379,6.394c-0.927,4.112-1.729,7.665-3.966,7.665c-2.237,0-3.039-3.553-3.968-7.664
		c-0.504-2.235-1.444-6.395-2.38-6.395c-0.939,0-1.879,4.162-2.385,6.396c-0.929,4.111-1.731,7.665-3.969,7.665
		c-2.238,0-3.041-3.555-3.969-7.667c-0.504-2.234-1.445-6.394-2.381-6.394c-0.937,0-1.876,4.16-2.38,6.395
		c-0.928,4.111-1.73,7.664-3.967,7.664c-2.236,0-3.039-3.553-3.965-7.664c-0.505-2.234-1.442-6.396-2.378-6.396
		c-0.937,0-1.875,4.161-2.379,6.396c-0.928,4.111-1.729,7.664-3.965,7.664c-2.238,0-3.038-3.553-3.965-7.665
		c-0.505-2.234-1.444-6.394-2.379-6.394c-0.938,0-1.876,4.162-2.381,6.398c-0.928,4.108-1.729,7.661-3.964,7.661
		c-2.238,0-3.039-3.553-3.967-7.664c-0.504-2.235-1.444-6.395-2.381-6.395c-0.938,0-1.876,4.16-2.381,6.395
		c-0.931,4.111-1.732,7.664-3.97,7.664s-3.041-3.553-3.968-7.664c-0.505-2.235-1.444-6.395-2.381-6.395s-1.876,4.16-2.381,6.394
		c-0.929,4.112-1.731,7.667-3.968,7.667c-2.239,0-3.041-3.555-3.97-7.667c-0.504-2.234-1.445-6.394-2.381-6.394
		c-0.939,0-1.878,4.162-2.383,6.396c-0.929,4.111-1.731,7.665-3.97,7.665c-2.238,0-3.04-3.555-3.969-7.667
		c-0.504-2.234-1.444-6.394-2.38-6.394c-0.939,0-1.88,4.162-2.385,6.396c-0.928,4.111-1.731,7.665-3.968,7.665
		c-2.239,0-3.04-3.555-3.969-7.667c-0.504-2.234-1.445-6.394-2.381-6.394c-0.938,0-1.879,4.162-2.383,6.398
		c-0.928,4.108-1.731,7.661-3.968,7.661c-2.238,0-3.04-3.553-3.97-7.664c-0.504-2.235-1.443-6.395-2.381-6.395
		s-1.878,4.16-2.382,6.395c-0.93,4.111-1.731,7.664-3.969,7.664c-2.238,0-3.04-3.553-3.968-7.664
		c-0.504-2.235-1.444-6.395-2.381-6.395c-0.936,0-1.877,4.159-2.381,6.392c-0.928,4.113-1.731,7.667-3.971,7.667
		c-2.237,0-3.038-3.553-3.968-7.664c-0.503-2.235-1.444-6.395-2.38-6.395c-0.938,0-1.876,4.16-2.382,6.395
		c-0.929,4.111-1.732,7.664-3.969,7.664c-2.238,0-3.039-3.553-3.967-7.664c-0.504-2.234-1.444-6.396-2.383-6.396
		c-0.937,0-1.877,4.16-2.382,6.394c-0.929,4.112-1.731,7.666-3.971,7.666c-2.236,0-3.038-3.553-3.967-7.664
		c-0.505-2.234-1.444-6.396-2.383-6.396c-0.938,0-1.877,4.161-2.382,6.396c-0.929,4.111-1.731,7.664-3.968,7.664
		c-2.238,0-3.039-3.553-3.969-7.664c-0.503-2.235-1.443-6.395-2.38-6.395s-1.875,4.16-2.38,6.395
		c-0.929,4.111-1.73,7.664-3.967,7.664c-2.237,0-3.04-3.553-3.969-7.661c-0.503-2.236-1.444-6.398-2.383-6.398
		c-0.937,0-1.877,4.16-2.38,6.395c-0.929,4.111-1.731,7.664-3.968,7.664c-2.239,0-3.042-3.554-3.971-7.666
		c-0.505-2.234-1.445-6.394-2.381-6.394c-0.939,0-1.878,4.161-2.384,6.396c-0.928,4.111-1.731,7.664-3.968,7.664
		c-2.238,0-3.038-3.553-3.967-7.664c-0.505-2.235-1.444-6.395-2.38-6.395c-0.939,0-1.88,4.162-2.384,6.398
		c-0.93,4.108-1.731,7.661-3.967,7.661c-2.238,0-3.04-3.554-3.968-7.667c-0.505-2.233-1.443-6.392-2.378-6.392
		c-0.937,0-1.876,4.16-2.381,6.395c-0.929,4.111-1.73,7.664-3.967,7.664c-2.238,0-3.04-3.553-3.968-7.664
		c-0.504-2.235-1.444-6.395-2.38-6.395c-0.939,0-1.879,4.16-2.382,6.395c-0.93,4.111-1.732,7.664-3.97,7.664
		c-2.239,0-3.04-3.553-3.97-7.664c-0.504-2.235-1.444-6.395-2.381-6.395s-1.877,4.16-2.381,6.395
		c-0.929,4.111-1.73,7.664-3.968,7.664c-2.236,0-3.04-3.553-3.967-7.664c-0.505-2.234-1.444-6.396-2.382-6.396
		c-0.936,0-1.876,4.16-2.381,6.395c-0.928,4.111-1.729,7.665-3.967,7.665c-2.236,0-3.038-3.554-3.965-7.665
		c-0.505-2.234-1.444-6.396-2.381-6.396c-0.938,0-1.877,4.162-2.381,6.398c-0.928,4.108-1.729,7.661-3.964,7.661
		c-2.237,0-3.039-3.553-3.968-7.664c-0.504-2.235-1.444-6.395-2.381-6.395s-1.876,4.161-2.38,6.396
		c-0.929,4.111-1.73,7.665-3.966,7.665c-2.236,0-3.04-3.554-3.968-7.665C16.941,5.787,16,1.625,15.063,1.625
		s-1.876,4.16-2.381,6.395c-0.928,4.111-1.729,7.664-3.968,7.664c-2.239,0-3.041-3.554-3.971-7.667
		c-0.505-2.233-1.445-6.392-2.38-6.392V0C4.6,0,5.402,3.549,6.332,7.66c0.504,2.234,1.444,6.396,2.383,6.396
		c0.937,0,1.877-4.16,2.381-6.396C12.024,3.55,12.825,0,15.063,0s3.041,3.551,3.969,7.664c0.504,2.234,1.444,6.393,2.381,6.393
		c0.936,0,1.875-4.158,2.378-6.393C24.721,3.551,25.522,0,27.759,0c2.238,0,3.04,3.55,3.968,7.662
		c0.504,2.234,1.444,6.395,2.38,6.395c0.935,0,1.873-4.158,2.378-6.392C37.414,3.552,38.215,0,40.454,0
		c2.237,0,3.039,3.551,3.967,7.664c0.504,2.234,1.444,6.393,2.379,6.393c0.937,0,1.876-4.16,2.381-6.395
		C50.108,3.55,50.911,0,53.148,0c2.238,0,3.04,3.551,3.97,7.664c0.505,2.234,1.443,6.393,2.38,6.393s1.875-4.16,2.381-6.395
		C62.807,3.55,63.608,0,65.847,0c2.237,0,3.038,3.55,3.968,7.662c0.505,2.234,1.444,6.395,2.383,6.395
		c0.938,0,1.878-4.16,2.382-6.395C75.509,3.55,76.312,0,78.55,0c2.237,0,3.039,3.55,3.967,7.662
		c0.504,2.234,1.444,6.395,2.381,6.395c0.936,0,1.876-4.16,2.381-6.395C88.207,3.55,89.008,0,91.246,0
		c2.235,0,3.037,3.549,3.965,7.66c0.504,2.234,1.442,6.396,2.38,6.396c0.936,0,1.876-4.158,2.38-6.393
		C100.901,3.552,101.704,0,103.943,0c2.237,0,3.04,3.55,3.967,7.662c0.505,2.234,1.444,6.395,2.381,6.395s1.877-4.158,2.381-6.393
		C113.6,3.551,114.402,0,116.642,0c2.237,0,3.039,3.549,3.968,7.662c0.505,2.234,1.445,6.395,2.384,6.395
		c0.936,0,1.875-4.16,2.38-6.395C126.303,3.55,127.105,0,129.342,0c2.24,0,3.042,3.552,3.971,7.665
		c0.505,2.233,1.444,6.392,2.381,6.392c0.936,0,1.876-4.16,2.38-6.395C139.003,3.55,139.805,0,142.042,0
		c2.238,0,3.04,3.55,3.967,7.662c0.505,2.234,1.445,6.395,2.381,6.395s1.876-4.158,2.38-6.393C151.7,3.551,152.502,0,154.74,0
		c2.239,0,3.042,3.551,3.97,7.664c0.504,2.234,1.444,6.393,2.38,6.393c0.94,0,1.879-4.16,2.384-6.395
		C164.404,3.55,165.206,0,167.444,0c2.239,0,3.041,3.551,3.969,7.664c0.505,2.234,1.445,6.393,2.381,6.393
		c0.938,0,1.878-4.16,2.382-6.395C177.104,3.55,177.907,0,180.145,0s3.04,3.55,3.968,7.662c0.504,2.234,1.444,6.395,2.38,6.395
		c0.94,0,1.88-4.162,2.385-6.396c0.928-4.111,1.73-7.66,3.967-7.66c2.237,0,3.039,3.55,3.967,7.662
		c0.505,2.233,1.444,6.396,2.382,6.396s1.877-4.16,2.381-6.396C202.504,3.55,203.307,0,205.544,0c2.238,0,3.041,3.55,3.969,7.662
		c0.505,2.234,1.444,6.395,2.382,6.395c0.937,0,1.876-4.158,2.381-6.392C215.206,3.552,216.008,0,218.247,0
		c2.237,0,3.04,3.549,3.968,7.662c0.504,2.234,1.444,6.395,2.382,6.395s1.878-4.158,2.382-6.393C227.909,3.551,228.712,0,230.951,0
		c2.236,0,3.038,3.549,3.967,7.662c0.505,2.234,1.445,6.395,2.382,6.395c0.938,0,1.876-4.158,2.383-6.393
		C240.612,3.551,241.415,0,243.653,0c2.237,0,3.04,3.549,3.968,7.662c0.505,2.234,1.444,6.395,2.383,6.395
		c0.938,0,1.878-4.16,2.382-6.395C253.314,3.549,254.116,0,256.354,0s3.039,3.55,3.967,7.662c0.505,2.234,1.445,6.395,2.382,6.395
		c0.938,0,1.877-4.16,2.382-6.395C266.012,3.55,266.816,0,269.053,0c2.238,0,3.039,3.55,3.969,7.662
		c0.504,2.234,1.443,6.395,2.379,6.395c0.935,0,1.873-4.158,2.377-6.392C278.707,3.552,279.509,0,281.747,0
		c2.237,0,3.038,3.55,3.965,7.663c0.505,2.233,1.443,6.394,2.379,6.394c0.935,0,1.873-4.158,2.377-6.393
		C291.397,3.551,292.199,0,294.436,0c2.236,0,3.038,3.551,3.966,7.664c0.504,2.234,1.442,6.393,2.378,6.393
		c0.935,0,1.876-4.16,2.38-6.395C304.088,3.55,304.89,0,307.127,0c2.237,0,3.04,3.549,3.968,7.662
		c0.505,2.234,1.443,6.395,2.382,6.395c0.938,0,1.877-4.158,2.383-6.393C316.789,3.551,317.591,0,319.831,0
		c2.237,0,3.038,3.55,3.967,7.662c0.504,2.234,1.444,6.395,2.38,6.395s1.875-4.16,2.379-6.394C329.485,3.55,330.287,0,332.523,0
		c2.238,0,3.04,3.55,3.967,7.662c0.504,2.234,1.445,6.395,2.382,6.395c0.936,0,1.876-4.16,2.38-6.395
		C342.181,3.55,342.982,0,345.22,0c2.239,0,3.041,3.55,3.971,7.662c0.504,2.232,1.445,6.395,2.384,6.395
		c0.937,0,1.878-4.16,2.383-6.395C354.886,3.55,355.69,0,357.926,0c2.238,0,3.04,3.55,3.968,7.662
		c0.505,2.234,1.445,6.395,2.381,6.395c0.937,0,1.877-4.16,2.381-6.395C367.584,3.55,368.386,0,370.623,0
		c2.239,0,3.042,3.55,3.971,7.662c0.505,2.232,1.445,6.395,2.384,6.395c0.94,0,1.879-4.16,2.384-6.395
		C380.292,3.55,381.095,0,383.333,0c2.239,0,3.041,3.552,3.971,7.665c0.505,2.233,1.444,6.392,2.38,6.392
		c0.938,0,1.876-4.158,2.381-6.392C392.994,3.552,393.795,0,396.036,0c2.238,0,3.04,3.55,3.969,7.662
		c0.505,2.234,1.444,6.395,2.382,6.395c0.939,0,1.879-4.16,2.386-6.395C405.7,3.55,406.503,0,408.742,0
		c2.235,0,3.041,3.55,3.969,7.662c0.505,2.234,1.444,6.395,2.383,6.395c0.939,0,1.879-4.16,2.384-6.395
		C418.406,3.55,419.209,0,421.448,0c2.237,0,3.042,3.55,3.971,7.662c0.506,2.232,1.446,6.395,2.383,6.395
		c0.94,0,1.88-4.162,2.386-6.396c0.929-4.111,1.73-7.66,3.969-7.66s3.044,3.552,3.974,7.664c0.504,2.231,1.445,6.394,2.383,6.394
		c0.939,0,1.878-4.16,2.383-6.396C443.825,3.55,444.627,0,446.865,0c2.241,0,3.042,3.551,3.973,7.664
		c0.505,2.232,1.446,6.393,2.384,6.393c0.938,0,1.879-4.16,2.385-6.395C456.535,3.55,457.337,0,459.576,0s3.041,3.549,3.971,7.66
		c0.505,2.234,1.447,6.396,2.388,6.396c0.938,0,1.878-4.16,2.385-6.396c0.93-4.113,1.729-7.662,3.969-7.662
		c2.241,0,3.042,3.551,3.971,7.664c0.505,2.233,1.445,6.394,2.382,6.394c0.938,0,1.876-4.16,2.383-6.396
		C481.95,3.55,482.75,0,484.989,0c2.235,0,3.042,3.549,3.97,7.661c0.505,2.235,1.445,6.396,2.386,6.396
		c0.938,0,1.877-4.158,2.382-6.393C494.656,3.551,495.458,0,497.698,0c2.235,0,3.041,3.549,3.969,7.66
		c0.506,2.234,1.448,6.396,2.389,6.396c0.938,0,1.878-4.16,2.387-6.394c0.927-4.112,1.73-7.663,3.97-7.663s3.041,3.551,3.972,7.664
		c0.506,2.232,1.445,6.393,2.385,6.393c0.941,0,1.883-4.16,2.391-6.396C520.088,3.549,520.891,0,523.131,0
		c2.239,0,3.042,3.549,3.972,7.661c0.507,2.235,1.446,6.396,2.388,6.396c0.94,0,1.883-4.16,2.388-6.395
		C532.808,3.55,533.611,0,535.851,0c2.241,0,3.044,3.551,3.977,7.664c0.505,2.232,1.445,6.393,2.385,6.393
		c0.94,0,1.881-4.16,2.386-6.393C545.526,3.551,546.33,0,548.57,0c2.238,0,3.043,3.55,3.974,7.662
		c0.506,2.232,1.447,6.395,2.387,6.395c0.943,0,1.886-4.158,2.393-6.393C558.253,3.552,559.058,0,561.302,0s3.049,3.55,3.98,7.662
		c0.542,2.393,1.451,6.395,2.394,6.395V15.686L567.676,15.686z"/>
</g>
<g>
	<path fill="#33BAAF" d="M1113.97,15.686c-2.243,0-3.048-3.554-3.979-7.665c-0.544-2.391-1.451-6.395-2.396-6.395
		c-0.942,0-1.852,4.006-2.395,6.399c-0.934,4.108-1.735,7.661-3.979,7.661c-2.239,0-3.044-3.554-3.974-7.665
		c-0.505-2.234-1.446-6.395-2.388-6.395c-0.939,0-1.882,4.162-2.389,6.397c-0.93,4.109-1.73,7.663-3.973,7.663
		c-2.238,0-3.042-3.554-3.973-7.663c-0.505-2.236-1.445-6.397-2.389-6.397c-0.938,0-1.881,4.161-2.387,6.395
		c-0.93,4.111-1.733,7.665-3.975,7.665c-2.242,0-3.044-3.555-3.975-7.667c-0.506-2.233-1.445-6.394-2.386-6.394
		c-0.939,0-1.882,4.16-2.387,6.394c-0.932,4.112-1.734,7.667-3.977,7.667c-2.238,0-3.043-3.554-3.973-7.663
		c-0.505-2.236-1.445-6.397-2.385-6.397c-0.94,0-1.882,4.162-2.387,6.397c-0.93,4.109-1.731,7.663-3.972,7.663
		c-2.239,0-3.045-3.555-3.974-7.667c-0.505-2.234-1.447-6.393-2.384-6.393c-0.939,0-1.879,4.162-2.386,6.396
		c-0.931,4.111-1.73,7.664-3.97,7.664s-3.043-3.554-3.972-7.666c-0.505-2.233-1.446-6.394-2.384-6.394
		c-0.938,0-1.877,4.16-2.382,6.395c-0.931,4.111-1.729,7.665-3.97,7.665c-2.235,0-3.039-3.554-3.969-7.665
		c-0.506-2.234-1.444-6.396-2.385-6.396c-0.938,0-1.877,4.16-2.381,6.394c-0.932,4.112-1.732,7.667-3.973,7.667
		c-2.241,0-3.045-3.555-3.975-7.667c-0.506-2.234-1.446-6.393-2.385-6.393c-0.939,0-1.877,4.161-2.384,6.395
		c-0.932,4.111-1.731,7.665-3.972,7.665s-3.041-3.554-3.972-7.663c-0.505-2.236-1.446-6.397-2.386-6.397
		c-0.938,0-1.877,4.16-2.382,6.394c-0.931,4.112-1.731,7.666-3.973,7.666c-2.236,0-3.04-3.553-3.97-7.661
		c-0.507-2.236-1.447-6.398-2.387-6.398c-0.938,0-1.878,4.159-2.385,6.392c-0.928,4.113-1.729,7.667-3.971,7.667
		c-2.238,0-3.041-3.553-3.971-7.664c-0.504-2.234-1.443-6.395-2.383-6.395c-0.94,0-1.88,4.161-2.387,6.395
		c-0.929,4.111-1.729,7.664-3.971,7.664c-2.238,0-3.039-3.553-3.97-7.664c-0.503-2.235-1.442-6.395-2.382-6.395
		c-0.938,0-1.881,4.161-2.385,6.395c-0.93,4.111-1.732,7.664-3.972,7.664s-3.04-3.553-3.969-7.664
		c-0.505-2.235-1.444-6.395-2.382-6.395c-0.939,0-1.88,4.162-2.387,6.398c-0.928,4.108-1.729,7.661-3.968,7.661
		c-2.236,0-3.039-3.553-3.968-7.661c-0.504-2.236-1.445-6.398-2.383-6.398c-0.939,0-1.879,4.161-2.387,6.395
		c-0.928,4.111-1.73,7.664-3.971,7.664s-3.041-3.553-3.971-7.664c-0.505-2.234-1.444-6.395-2.385-6.395
		c-0.938,0-1.875,4.16-2.38,6.395c-0.931,4.111-1.729,7.664-3.97,7.664c-2.235,0-3.039-3.553-3.967-7.664
		c-0.506-2.235-1.444-6.395-2.381-6.395c-0.939,0-1.878,4.16-2.381,6.395c-0.933,4.111-1.733,7.664-3.973,7.664
		c-2.236,0-3.041-3.553-3.971-7.664c-0.505-2.234-1.445-6.395-2.385-6.395c-0.937,0-1.876,4.16-2.381,6.395
		c-0.929,4.111-1.729,7.664-3.966,7.664c-2.239,0-3.04-3.553-3.97-7.664c-0.505-2.235-1.443-6.395-2.382-6.395
		c-0.936,0-1.874,4.16-2.379,6.394c-0.927,4.112-1.729,7.665-3.966,7.665s-3.039-3.553-3.968-7.664
		c-0.505-2.235-1.444-6.395-2.382-6.395s-1.879,4.162-2.385,6.396c-0.93,4.111-1.729,7.665-3.969,7.665s-3.041-3.555-3.97-7.667
		c-0.504-2.234-1.444-6.394-2.381-6.394c-0.938,0-1.876,4.16-2.381,6.395c-0.93,4.111-1.729,7.664-3.968,7.664
		c-2.235,0-3.039-3.553-3.966-7.664c-0.505-2.234-1.441-6.396-2.378-6.396c-0.938,0-1.875,4.161-2.38,6.396
		c-0.928,4.111-1.729,7.664-3.965,7.664c-2.237,0-3.038-3.553-3.967-7.665c-0.505-2.234-1.442-6.394-2.38-6.394
		s-1.876,4.162-2.381,6.398c-0.928,4.108-1.729,7.661-3.965,7.661c-2.238,0-3.039-3.553-3.967-7.664
		c-0.505-2.235-1.445-6.395-2.381-6.395c-0.939,0-1.877,4.16-2.382,6.395c-0.933,4.111-1.732,7.664-3.972,7.664
		c-2.237,0-3.041-3.553-3.968-7.664c-0.505-2.235-1.443-6.395-2.381-6.395c-0.938,0-1.876,4.16-2.382,6.394
		c-0.929,4.112-1.73,7.667-3.969,7.667s-3.04-3.555-3.971-7.667c-0.504-2.234-1.444-6.394-2.381-6.394
		c-0.938,0-1.879,4.162-2.383,6.396c-0.931,4.111-1.732,7.665-3.972,7.665c-2.236,0-3.039-3.555-3.97-7.667
		c-0.504-2.234-1.442-6.394-2.38-6.394s-1.88,4.162-2.386,6.396c-0.928,4.111-1.729,7.665-3.968,7.665
		c-2.239,0-3.04-3.555-3.971-7.667c-0.505-2.234-1.443-6.394-2.382-6.394c-0.938,0-1.879,4.162-2.383,6.398
		c-0.928,4.108-1.731,7.661-3.969,7.661c-2.238,0-3.039-3.553-3.971-7.664c-0.505-2.235-1.441-6.395-2.382-6.395
		c-0.938,0-1.877,4.16-2.382,6.395c-0.931,4.111-1.731,7.664-3.969,7.664c-2.238,0-3.041-3.553-3.969-7.664
		c-0.505-2.235-1.443-6.395-2.382-6.395c-0.937,0-1.877,4.159-2.381,6.392c-0.93,4.113-1.731,7.667-3.972,7.667
		c-2.236,0-3.039-3.553-3.969-7.664c-0.502-2.235-1.443-6.395-2.38-6.395c-0.938,0-1.876,4.16-2.383,6.395
		c-0.93,4.111-1.731,7.664-3.969,7.664c-2.238,0-3.039-3.553-3.969-7.664c-0.505-2.234-1.443-6.396-2.383-6.396
		c-0.938,0-1.878,4.16-2.382,6.394c-0.931,4.112-1.731,7.666-3.973,7.666c-2.234,0-3.038-3.553-3.968-7.664
		c-0.505-2.234-1.443-6.396-2.383-6.396c-0.938,0-1.877,4.161-2.382,6.396c-0.931,4.111-1.73,7.664-3.969,7.664
		c-2.237,0-3.038-3.553-3.969-7.664c-0.503-2.235-1.442-6.395-2.381-6.395c-0.937,0-1.875,4.16-2.381,6.395
		c-0.928,4.111-1.729,7.664-3.967,7.664c-2.238,0-3.04-3.553-3.97-7.661c-0.504-2.236-1.443-6.398-2.383-6.398
		c-0.938,0-1.877,4.16-2.381,6.395c-0.93,4.111-1.729,7.664-3.968,7.664c-2.239,0-3.043-3.554-3.972-7.666
		c-0.506-2.234-1.444-6.394-2.383-6.394s-1.878,4.161-2.383,6.396c-0.93,4.111-1.73,7.664-3.97,7.664
		c-2.237,0-3.036-3.553-3.967-7.664c-0.505-2.235-1.443-6.395-2.381-6.395c-0.938,0-1.88,4.162-2.384,6.398
		c-0.93,4.108-1.73,7.661-3.968,7.661s-3.04-3.554-3.969-7.667c-0.505-2.233-1.442-6.392-2.378-6.392
		c-0.938,0-1.876,4.16-2.381,6.395c-0.93,4.111-1.729,7.664-3.969,7.664c-2.238,0-3.038-3.553-3.968-7.664
		c-0.505-2.235-1.443-6.395-2.38-6.395c-0.938,0-1.879,4.16-2.383,6.395c-0.931,4.111-1.731,7.664-3.97,7.664
		c-2.239,0-3.04-3.553-3.971-7.664c-0.505-2.235-1.443-6.395-2.382-6.395c-0.937,0-1.877,4.16-2.381,6.395
		c-0.93,4.111-1.729,7.664-3.969,7.664c-2.235,0-3.04-3.553-3.967-7.664c-0.505-2.234-1.443-6.396-2.383-6.396
		c-0.937,0-1.877,4.16-2.382,6.395c-0.928,4.111-1.729,7.665-3.967,7.665c-2.235,0-3.038-3.554-3.966-7.665
		c-0.505-2.234-1.443-6.396-2.381-6.396c-0.938,0-1.877,4.162-2.381,6.398c-0.928,4.108-1.729,7.661-3.964,7.661
		c-2.237,0-3.039-3.553-3.969-7.664c-0.504-2.235-1.443-6.395-2.381-6.395s-1.876,4.161-2.38,6.396
		c-0.93,4.111-1.729,7.665-3.967,7.665c-2.235,0-3.04-3.554-3.968-7.665c-0.504-2.234-1.445-6.396-2.382-6.396
		c-0.938,0-1.877,4.16-2.382,6.395c-0.928,4.111-1.729,7.664-3.968,7.664s-3.041-3.554-3.972-7.667
		c-0.505-2.233-1.444-6.392-2.38-6.392V0c2.235,0,3.039,3.549,3.968,7.66c0.505,2.234,1.444,6.396,2.384,6.396
		c0.938,0,1.877-4.16,2.381-6.396C558.318,3.55,559.119,0,561.357,0c2.236,0,3.041,3.551,3.969,7.664
		c0.504,2.234,1.442,6.393,2.381,6.393c0.936,0,1.875-4.158,2.378-6.393C571.015,3.551,571.816,0,574.053,0
		c2.238,0,3.04,3.55,3.969,7.662c0.505,2.234,1.443,6.395,2.381,6.395c0.935,0,1.873-4.158,2.378-6.392
		C583.708,3.552,584.509,0,586.748,0c2.237,0,3.039,3.551,3.967,7.664c0.504,2.234,1.444,6.393,2.379,6.393
		c0.938,0,1.876-4.16,2.381-6.395C596.402,3.55,597.205,0,599.442,0c2.236,0,3.04,3.551,3.97,7.664
		c0.505,2.234,1.443,6.393,2.38,6.393c0.938,0,1.876-4.16,2.381-6.395C609.101,3.55,609.902,0,612.141,0
		c2.239,0,3.039,3.55,3.971,7.662c0.505,2.234,1.442,6.395,2.383,6.395c0.938,0,1.879-4.16,2.383-6.395
		C621.803,3.55,622.605,0,624.844,0c2.237,0,3.039,3.55,3.967,7.662c0.507,2.234,1.444,6.395,2.383,6.395
		c0.937,0,1.877-4.16,2.381-6.395C634.501,3.55,635.303,0,637.54,0c2.235,0,3.036,3.549,3.966,7.66
		c0.504,2.234,1.441,6.396,2.38,6.396s1.876-4.158,2.38-6.393C647.195,3.552,647.998,0,650.236,0c2.235,0,3.04,3.55,3.967,7.662
		c0.506,2.234,1.445,6.395,2.381,6.395c0.938,0,1.877-4.158,2.382-6.393C659.895,3.551,660.695,0,662.936,0
		c2.237,0,3.039,3.549,3.971,7.662c0.505,2.234,1.443,6.395,2.385,6.395c0.936,0,1.875-4.16,2.379-6.395
		C672.598,3.55,673.398,0,675.637,0c2.239,0,3.041,3.552,3.973,7.665c0.505,2.233,1.441,6.392,2.381,6.392
		c0.936,0,1.876-4.16,2.381-6.395C685.297,3.55,686.099,0,688.336,0c2.238,0,3.04,3.55,3.967,7.662
		c0.506,2.234,1.445,6.395,2.382,6.395c0.938,0,1.876-4.158,2.382-6.393c0.93-4.112,1.729-7.664,3.97-7.664s3.042,3.551,3.97,7.664
		c0.504,2.234,1.443,6.393,2.38,6.393c0.94,0,1.879-4.16,2.384-6.395C710.697,3.549,711.5,0,713.737,0s3.04,3.551,3.969,7.664
		c0.505,2.234,1.444,6.393,2.382,6.393c0.938,0,1.877-4.16,2.382-6.395C723.398,3.55,724.201,0,726.438,0
		c2.237,0,3.04,3.55,3.97,7.662c0.504,2.234,1.443,6.395,2.381,6.395s1.88-4.162,2.385-6.396C736.1,3.549,736.902,0,739.139,0
		c2.237,0,3.039,3.55,3.967,7.662c0.508,2.234,1.445,6.395,2.385,6.395c0.938,0,1.877-4.16,2.381-6.395
		C748.799,3.55,749.602,0,751.838,0c2.238,0,3.041,3.55,3.97,7.662c0.505,2.234,1.444,6.395,2.384,6.395
		c0.938,0,1.877-4.158,2.381-6.392C761.5,3.552,762.303,0,764.541,0c2.236,0,3.04,3.549,3.969,7.662
		c0.504,2.234,1.443,6.395,2.382,6.395c0.939,0,1.878-4.158,2.384-6.393c0.928-4.113,1.73-7.664,3.97-7.664
		c2.236,0,3.038,3.549,3.967,7.662c0.505,2.234,1.444,6.395,2.382,6.395c0.938,0,1.877-4.158,2.383-6.393
		C786.906,3.551,787.709,0,789.947,0c2.235,0,3.039,3.549,3.968,7.662c0.505,2.234,1.444,6.395,2.383,6.395
		c0.939,0,1.878-4.16,2.382-6.395C799.608,3.549,800.41,0,802.646,0s3.037,3.55,3.968,7.662c0.505,2.234,1.442,6.395,2.382,6.395
		c0.938,0,1.877-4.16,2.382-6.395C812.307,3.55,813.109,0,815.348,0c2.237,0,3.038,3.55,3.971,7.662
		c0.504,2.234,1.441,6.395,2.379,6.395c0.936,0,1.873-4.158,2.377-6.392C825.001,3.552,825.803,0,828.041,0
		c2.236,0,3.038,3.55,3.965,7.663c0.506,2.233,1.443,6.394,2.38,6.394s1.873-4.158,2.378-6.393C837.691,3.551,838.492,0,840.73,0
		c2.234,0,3.035,3.551,3.965,7.664c0.504,2.234,1.44,6.393,2.379,6.393c0.935,0,1.875-4.16,2.379-6.395
		C850.382,3.55,851.184,0,853.421,0s3.04,3.549,3.968,7.662c0.506,2.234,1.443,6.395,2.385,6.395c0.938,0,1.877-4.158,2.383-6.393
		C863.082,3.551,863.885,0,866.125,0c2.236,0,3.037,3.55,3.967,7.662c0.504,2.234,1.444,6.395,2.381,6.395
		c0.938,0,1.875-4.16,2.379-6.394C875.779,3.55,876.581,0,878.817,0s3.04,3.55,3.968,7.662c0.504,2.234,1.443,6.395,2.382,6.395
		s1.876-4.16,2.38-6.395C888.475,3.55,889.276,0,891.514,0c2.239,0,3.041,3.55,3.974,7.662c0.505,2.232,1.442,6.395,2.384,6.395
		c0.938,0,1.878-4.16,2.383-6.395C901.18,3.55,901.984,0,904.221,0c2.237,0,3.039,3.55,3.967,7.662
		c0.508,2.234,1.445,6.395,2.383,6.395s1.877-4.16,2.381-6.395C913.879,3.55,914.68,0,916.916,0c2.239,0,3.043,3.55,3.971,7.662
		c0.506,2.232,1.445,6.395,2.387,6.395c0.938,0,1.879-4.16,2.384-6.395C926.586,3.55,927.389,0,929.627,0s3.04,3.552,3.971,7.665
		c0.504,2.233,1.443,6.392,2.381,6.392c0.938,0,1.875-4.158,2.383-6.392C939.288,3.552,940.09,0,942.33,0
		c2.238,0,3.04,3.55,3.969,7.662c0.505,2.234,1.444,6.395,2.382,6.395c0.938,0,1.88-4.16,2.386-6.395
		C951.994,3.55,952.797,0,955.035,0s3.041,3.55,3.969,7.662c0.506,2.234,1.444,6.395,2.383,6.395c0.939,0,1.879-4.16,2.385-6.395
		C964.7,3.55,965.503,0,967.742,0c2.238,0,3.042,3.55,3.971,7.662c0.506,2.232,1.445,6.395,2.383,6.395
		c0.939,0,1.881-4.162,2.387-6.396c0.928-4.111,1.729-7.66,3.969-7.66c2.24,0,3.043,3.552,3.973,7.664
		c0.505,2.231,1.445,6.394,2.384,6.394c0.939,0,1.878-4.16,2.386-6.396C990.119,3.549,990.921,0,993.158,0
		c2.241,0,3.043,3.551,3.973,7.664c0.506,2.232,1.446,6.393,2.385,6.393c0.939,0,1.881-4.16,2.385-6.395
		c0.93-4.112,1.73-7.662,3.971-7.662s3.041,3.549,3.971,7.66c0.506,2.234,1.447,6.396,2.391,6.396c0.938,0,1.877-4.16,2.383-6.396
		c0.931-4.112,1.73-7.662,3.969-7.662c2.241,0,3.042,3.551,3.972,7.664c0.505,2.233,1.444,6.394,2.382,6.394s1.877-4.16,2.383-6.396
		c0.93-4.112,1.729-7.662,3.969-7.662c2.234,0,3.041,3.549,3.97,7.661c0.505,2.234,1.445,6.396,2.386,6.396
		c0.938,0,1.877-4.158,2.383-6.394c0.93-4.112,1.73-7.664,3.973-7.664c2.236,0,3.04,3.549,3.969,7.66
		c0.506,2.233,1.448,6.396,2.389,6.396c0.938,0,1.88-4.16,2.387-6.393c0.929-4.112,1.73-7.664,3.972-7.664s3.041,3.551,3.974,7.664
		c0.506,2.232,1.443,6.393,2.385,6.393c0.94,0,1.881-4.16,2.389-6.396c0.926-4.109,1.727-7.659,3.969-7.659
		c2.238,0,3.041,3.549,3.973,7.661c0.506,2.235,1.445,6.396,2.387,6.396s1.883-4.16,2.388-6.395
		c0.933-4.112,1.733-7.662,3.976-7.662c2.239,0,3.045,3.551,3.975,7.664c0.506,2.232,1.445,6.393,2.385,6.393
		c0.94,0,1.881-4.16,2.389-6.393c0.93-4.112,1.73-7.664,3.973-7.664s3.044,3.55,3.975,7.662c0.507,2.232,1.446,6.395,2.389,6.395
		c0.941,0,1.885-4.158,2.391-6.393c0.932-4.112,1.736-7.664,3.979-7.664s3.05,3.55,3.979,7.662c0.541,2.393,1.45,6.395,2.394,6.395
		v1.629H1113.97z"/>
</g>
<g>
	<path fill="#33BAAF" d="M1660.204,15.686c-2.243,0-3.048-3.554-3.979-7.665c-0.544-2.391-1.451-6.395-2.395-6.395
		c-0.944,0-1.854,4.006-2.396,6.399c-0.932,4.108-1.733,7.661-3.977,7.661c-2.24,0-3.044-3.554-3.975-7.665
		c-0.506-2.234-1.445-6.395-2.389-6.395c-0.938,0-1.881,4.162-2.387,6.397c-0.93,4.109-1.732,7.663-3.973,7.663
		c-2.238,0-3.043-3.554-3.975-7.663c-0.504-2.236-1.443-6.397-2.387-6.397c-0.938,0-1.881,4.161-2.387,6.395
		c-0.932,4.111-1.734,7.665-3.977,7.665c-2.24,0-3.044-3.555-3.973-7.667c-0.506-2.233-1.447-6.394-2.386-6.394
		c-0.941,0-1.882,4.16-2.389,6.394c-0.931,4.112-1.732,7.667-3.976,7.667c-2.239,0-3.042-3.554-3.972-7.663
		c-0.505-2.236-1.445-6.397-2.386-6.397c-0.939,0-1.883,4.162-2.388,6.397c-0.928,4.109-1.729,7.663-3.97,7.663
		c-2.241,0-3.045-3.555-3.975-7.667c-0.505-2.234-1.446-6.393-2.385-6.393c-0.938,0-1.879,4.162-2.385,6.396
		c-0.93,4.111-1.73,7.664-3.969,7.664c-2.24,0-3.043-3.554-3.973-7.666c-0.506-2.233-1.445-6.394-2.385-6.394
		c-0.938,0-1.877,4.16-2.382,6.395c-0.929,4.111-1.729,7.665-3.968,7.665c-2.237,0-3.039-3.554-3.969-7.665
		c-0.507-2.234-1.444-6.396-2.387-6.396c-0.936,0-1.877,4.16-2.381,6.394c-0.93,4.112-1.73,7.667-3.971,7.667
		c-2.242,0-3.045-3.555-3.975-7.667c-0.508-2.234-1.446-6.393-2.387-6.393c-0.938,0-1.877,4.161-2.383,6.395
		c-0.931,4.111-1.732,7.665-3.971,7.665c-2.239,0-3.041-3.554-3.974-7.663c-0.505-2.236-1.444-6.397-2.386-6.397
		c-0.938,0-1.877,4.16-2.381,6.394c-0.93,4.112-1.73,7.666-3.972,7.666c-2.237,0-3.04-3.553-3.972-7.661
		c-0.507-2.236-1.445-6.398-2.387-6.398c-0.938,0-1.878,4.159-2.383,6.392c-0.928,4.113-1.73,7.667-3.971,7.667
		c-2.238,0-3.041-3.553-3.972-7.664c-0.505-2.234-1.442-6.395-2.384-6.395c-0.938,0-1.879,4.161-2.385,6.395
		c-0.929,4.111-1.731,7.664-3.971,7.664c-2.238,0-3.039-3.553-3.971-7.664c-0.504-2.235-1.441-6.395-2.383-6.395
		c-0.938,0-1.879,4.161-2.383,6.395c-0.93,4.111-1.734,7.664-3.973,7.664c-2.237,0-3.039-3.553-3.97-7.664
		c-0.505-2.235-1.442-6.395-2.382-6.395c-0.938,0-1.88,4.162-2.385,6.398c-0.928,4.108-1.729,7.661-3.968,7.661
		c-2.236,0-3.039-3.553-3.969-7.661c-0.505-2.236-1.444-6.398-2.384-6.398s-1.879,4.161-2.385,6.395
		c-0.928,4.111-1.732,7.664-3.971,7.664c-2.239,0-3.041-3.553-3.972-7.664c-0.506-2.234-1.443-6.395-2.386-6.395
		c-0.936,0-1.875,4.16-2.379,6.395c-0.93,4.111-1.729,7.664-3.969,7.664c-2.237,0-3.039-3.553-3.967-7.664
		c-0.507-2.235-1.444-6.395-2.382-6.395c-0.938,0-1.878,4.16-2.382,6.395c-0.931,4.111-1.731,7.664-3.971,7.664
		s-3.041-3.553-3.971-7.664c-0.505-2.234-1.445-6.395-2.385-6.395c-0.938,0-1.877,4.16-2.382,6.395
		c-0.929,4.111-1.729,7.664-3.967,7.664s-3.039-3.553-3.968-7.664c-0.505-2.235-1.444-6.395-2.382-6.395
		c-0.937,0-1.874,4.16-2.379,6.394c-0.928,4.112-1.729,7.665-3.966,7.665c-2.237,0-3.039-3.553-3.969-7.664
		c-0.504-2.235-1.443-6.395-2.381-6.395s-1.879,4.162-2.385,6.396c-0.93,4.111-1.73,7.665-3.969,7.665
		c-2.239,0-3.041-3.555-3.971-7.667c-0.504-2.234-1.443-6.394-2.381-6.394s-1.876,4.16-2.38,6.395
		c-0.93,4.111-1.729,7.664-3.968,7.664s-3.039-3.553-3.966-7.664c-0.505-2.234-1.441-6.396-2.378-6.396
		c-0.938,0-1.875,4.161-2.381,6.396c-0.928,4.111-1.729,7.664-3.965,7.664s-3.037-3.553-3.966-7.665
		c-0.505-2.234-1.442-6.394-2.38-6.394s-1.875,4.162-2.381,6.398c-0.928,4.108-1.729,7.661-3.965,7.661
		c-2.238,0-3.039-3.553-3.967-7.664c-0.506-2.235-1.445-6.395-2.381-6.395c-0.939,0-1.877,4.16-2.383,6.395
		c-0.932,4.111-1.731,7.664-3.97,7.664s-3.041-3.553-3.969-7.664c-0.505-2.235-1.443-6.395-2.381-6.395s-1.876,4.16-2.382,6.394
		c-0.929,4.112-1.729,7.667-3.969,7.667c-2.238,0-3.04-3.555-3.971-7.667c-0.504-2.234-1.443-6.394-2.381-6.394
		s-1.879,4.162-2.383,6.396c-0.931,4.111-1.732,7.665-3.971,7.665c-2.237,0-3.039-3.555-3.97-7.667
		c-0.504-2.234-1.443-6.394-2.381-6.394s-1.88,4.162-2.386,6.396c-0.928,4.111-1.729,7.665-3.968,7.665
		c-2.239,0-3.04-3.555-3.971-7.667c-0.504-2.234-1.443-6.394-2.381-6.394s-1.88,4.162-2.384,6.398
		c-0.928,4.108-1.73,7.661-3.969,7.661s-3.039-3.553-3.971-7.664c-0.505-2.235-1.441-6.395-2.382-6.395
		c-0.938,0-1.877,4.16-2.381,6.395c-0.932,4.111-1.731,7.664-3.97,7.664s-3.041-3.553-3.969-7.664
		c-0.504-2.235-1.442-6.395-2.381-6.395c-0.938,0-1.877,4.159-2.381,6.392c-0.93,4.113-1.732,7.667-3.972,7.667
		c-2.237,0-3.039-3.553-3.97-7.664c-0.502-2.235-1.442-6.395-2.38-6.395c-0.938,0-1.876,4.16-2.382,6.395
		c-0.931,4.111-1.732,7.664-3.969,7.664c-2.238,0-3.039-3.553-3.969-7.664c-0.505-2.234-1.443-6.396-2.384-6.396
		c-0.937,0-1.878,4.16-2.382,6.394c-0.93,4.112-1.73,7.666-3.973,7.666c-2.234,0-3.037-3.553-3.967-7.664
		c-0.506-2.234-1.443-6.396-2.384-6.396c-0.938,0-1.877,4.161-2.382,6.396c-0.93,4.111-1.73,7.664-3.968,7.664
		c-2.238,0-3.038-3.553-3.97-7.664c-0.503-2.235-1.442-6.395-2.38-6.395s-1.875,4.16-2.381,6.395
		c-0.929,4.111-1.729,7.664-3.968,7.664s-3.04-3.553-3.969-7.661c-0.504-2.236-1.444-6.398-2.384-6.398
		c-0.938,0-1.877,4.16-2.381,6.395c-0.93,4.111-1.729,7.664-3.968,7.664c-2.239,0-3.043-3.554-3.972-7.666
		c-0.505-2.234-1.444-6.394-2.382-6.394c-0.939,0-1.879,4.161-2.384,6.396c-0.93,4.111-1.73,7.664-3.97,7.664
		c-2.237,0-3.036-3.553-3.967-7.664c-0.505-2.235-1.444-6.395-2.381-6.395c-0.938,0-1.879,4.162-2.384,6.398
		c-0.931,4.108-1.73,7.661-3.968,7.661c-2.238,0-3.041-3.554-3.969-7.667c-0.505-2.233-1.442-6.392-2.378-6.392
		c-0.938,0-1.876,4.16-2.381,6.395c-0.93,4.111-1.729,7.664-3.969,7.664c-2.238,0-3.038-3.553-3.969-7.664
		c-0.505-2.235-1.442-6.395-2.38-6.395s-1.879,4.16-2.382,6.395c-0.931,4.111-1.731,7.664-3.97,7.664
		c-2.239,0-3.04-3.553-3.971-7.664c-0.505-2.235-1.443-6.395-2.382-6.395c-0.937,0-1.877,4.16-2.382,6.395
		c-0.929,4.111-1.729,7.664-3.968,7.664c-2.235,0-3.04-3.553-3.967-7.664c-0.505-2.234-1.444-6.396-2.384-6.396
		c-0.937,0-1.877,4.16-2.381,6.395c-0.929,4.111-1.729,7.665-3.969,7.665c-2.234,0-3.038-3.554-3.966-7.665
		c-0.504-2.234-1.442-6.396-2.381-6.396s-1.877,4.162-2.381,6.398c-0.929,4.108-1.729,7.661-3.966,7.661
		c-2.235,0-3.038-3.553-3.967-7.664c-0.504-2.235-1.443-6.395-2.381-6.395s-1.877,4.161-2.382,6.396
		c-0.928,4.111-1.729,7.665-3.966,7.665s-3.04-3.554-3.968-7.665c-0.505-2.234-1.445-6.396-2.384-6.396
		c-0.938,0-1.876,4.16-2.381,6.395c-0.929,4.111-1.729,7.664-3.968,7.664s-3.041-3.554-3.971-7.667
		c-0.506-2.233-1.445-6.392-2.381-6.392V0c2.235,0,3.038,3.549,3.969,7.66c0.504,2.234,1.442,6.396,2.383,6.396
		c0.938,0,1.877-4.16,2.382-6.396c0.93-4.112,1.729-7.662,3.967-7.662c2.238,0,3.041,3.551,3.971,7.664
		c0.505,2.233,1.443,6.394,2.381,6.394c0.937,0,1.876-4.158,2.378-6.394c0.931-4.112,1.729-7.664,3.97-7.664
		c2.236,0,3.039,3.55,3.969,7.662c0.505,2.233,1.443,6.396,2.38,6.396c0.936,0,1.873-4.158,2.379-6.393
		c0.928-4.112,1.729-7.665,3.967-7.665s3.039,3.551,3.969,7.664c0.505,2.233,1.443,6.394,2.379,6.394
		c0.938,0,1.876-4.16,2.382-6.396c0.927-4.112,1.729-7.662,3.968-7.662c2.237,0,3.04,3.551,3.97,7.664
		c0.506,2.233,1.443,6.394,2.381,6.394c0.938,0,1.875-4.16,2.381-6.396c0.928-4.112,1.729-7.662,3.969-7.662
		c2.238,0,3.038,3.55,3.969,7.662c0.505,2.233,1.443,6.396,2.383,6.396s1.88-4.16,2.384-6.396c0.929-4.112,1.729-7.662,3.97-7.662
		c2.236,0,3.038,3.55,3.967,7.662c0.505,2.233,1.443,6.396,2.381,6.396s1.877-4.16,2.381-6.396c0.93-4.112,1.73-7.662,3.969-7.662
		c2.234,0,3.035,3.549,3.966,7.66c0.505,2.233,1.44,6.396,2.38,6.396c0.938,0,1.877-4.158,2.381-6.392
		c0.93-4.112,1.731-7.665,3.971-7.665c2.237,0,3.04,3.55,3.968,7.662c0.506,2.234,1.444,6.395,2.381,6.395
		c0.938,0,1.877-4.158,2.382-6.393c0.93-4.112,1.729-7.664,3.971-7.664c2.236,0,3.039,3.549,3.969,7.662
		c0.505,2.234,1.445,6.395,2.385,6.395c0.938,0,1.875-4.16,2.38-6.395c0.931-4.112,1.729-7.662,3.97-7.662
		c2.239,0,3.041,3.552,3.971,7.665c0.505,2.233,1.442,6.392,2.381,6.392c0.937,0,1.876-4.16,2.381-6.395
		c0.958-4.112,1.76-7.662,3.997-7.662s3.04,3.55,3.967,7.662c0.506,2.234,1.445,6.395,2.382,6.395c0.938,0,1.876-4.158,2.38-6.393
		c0.931-4.112,1.731-7.664,3.971-7.664c2.238,0,3.042,3.551,3.971,7.664c0.504,2.234,1.442,6.393,2.38,6.393
		c0.939,0,1.879-4.16,2.384-6.395c0.931-4.112,1.732-7.662,3.97-7.662c2.239,0,3.041,3.551,3.97,7.664
		c0.506,2.234,1.443,6.393,2.383,6.393c0.938,0,1.877-4.16,2.382-6.395c0.929-4.112,1.73-7.662,3.969-7.662
		c2.239,0,3.04,3.55,3.969,7.662c0.504,2.234,1.444,6.395,2.381,6.395c0.938,0,1.881-4.162,2.386-6.396
		c0.928-4.111,1.729-7.66,3.967-7.66c2.238,0,3.039,3.55,3.968,7.662c0.506,2.233,1.444,6.396,2.383,6.396
		c0.938,0,1.877-4.16,2.382-6.396c0.93-4.112,1.73-7.662,3.969-7.662s3.041,3.55,3.97,7.662c0.506,2.233,1.444,6.396,2.383,6.396
		c0.938,0,1.877-4.158,2.381-6.393c0.931-4.112,1.731-7.665,3.971-7.665c2.236,0,3.041,3.549,3.97,7.662
		c0.504,2.233,1.442,6.396,2.382,6.396c0.938,0,1.878-4.158,2.382-6.394c0.931-4.112,1.732-7.664,3.973-7.664
		c2.235,0,3.038,3.549,3.968,7.662c0.505,2.233,1.443,6.396,2.382,6.396s1.877-4.158,2.383-6.394
		c0.931-4.112,1.732-7.664,3.972-7.664c2.236,0,3.039,3.549,3.969,7.662c0.505,2.233,1.443,6.396,2.383,6.396
		c0.938,0,1.878-4.16,2.382-6.396C1345.85,3.55,1346.65,0,1348.889,0c2.239,0,3.038,3.55,3.968,7.662
		c0.506,2.234,1.443,6.395,2.383,6.395c0.938,0,1.877-4.16,2.382-6.395c0.929-4.112,1.73-7.662,3.97-7.662
		c2.237,0,3.038,3.55,3.97,7.662c0.504,2.234,1.442,6.395,2.379,6.395s1.873-4.158,2.377-6.392c0.93-4.112,1.729-7.665,3.969-7.665
		c2.236,0,3.038,3.55,3.966,7.663c0.506,2.233,1.442,6.394,2.38,6.394c0.936,0,1.873-4.158,2.378-6.393
		c0.929-4.112,1.729-7.664,3.968-7.664c2.235,0,3.036,3.551,3.965,7.664c0.504,2.234,1.441,6.393,2.379,6.393
		c0.936,0,1.875-4.16,2.38-6.395c0.929-4.112,1.729-7.662,3.968-7.662c2.237,0,3.04,3.549,3.968,7.662
		c0.507,2.234,1.443,6.395,2.384,6.395c0.938,0,1.877-4.158,2.383-6.393c0.929-4.112,1.729-7.664,3.972-7.664
		c2.235,0,3.037,3.55,3.968,7.662c0.504,2.234,1.443,6.395,2.381,6.395c0.937,0,1.875-4.16,2.379-6.394
		C1422.03,3.551,1422.83,0,1425.067,0c2.238,0,3.04,3.55,3.969,7.662c0.504,2.234,1.443,6.395,2.382,6.395
		c0.938,0,1.876-4.16,2.38-6.395C1434.721,3.55,1435.521,0,1437.76,0c2.239,0,3.041,3.55,3.974,7.662
		c0.505,2.232,1.442,6.395,2.384,6.395c0.938,0,1.878-4.16,2.383-6.395c0.928-4.112,1.732-7.662,3.969-7.662
		c2.237,0,3.039,3.55,3.969,7.662c0.506,2.234,1.443,6.395,2.381,6.395s1.877-4.16,2.381-6.395c0.93-4.112,1.729-7.662,3.967-7.662
		c2.239,0,3.043,3.55,3.971,7.662c0.506,2.232,1.445,6.395,2.386,6.395c0.939,0,1.88-4.16,2.385-6.395
		C1472.82,3.55,1473.623,0,1475.861,0c2.236,0,3.04,3.552,3.971,7.665c0.504,2.233,1.443,6.392,2.38,6.392
		c0.938,0,1.876-4.158,2.382-6.392c0.929-4.112,1.73-7.665,3.971-7.665c2.238,0,3.04,3.55,3.971,7.662
		c0.505,2.234,1.442,6.395,2.382,6.395c0.938,0,1.88-4.16,2.384-6.395c0.93-4.112,1.732-7.662,3.971-7.662
		c2.239,0,3.041,3.55,3.971,7.662c0.506,2.234,1.442,6.395,2.383,6.395c0.938,0,1.879-4.16,2.385-6.395
		C1510.938,3.55,1511.74,0,1513.98,0c2.238,0,3.042,3.55,3.971,7.662c0.508,2.232,1.445,6.395,2.385,6.395
		c0.938,0,1.881-4.162,2.385-6.396c0.928-4.111,1.73-7.66,3.969-7.66c2.24,0,3.043,3.552,3.975,7.664
		c0.505,2.231,1.443,6.394,2.384,6.394c0.938,0,1.878-4.16,2.384-6.396c0.93-4.112,1.731-7.662,3.969-7.662
		c2.241,0,3.043,3.551,3.975,7.664c0.506,2.231,1.445,6.394,2.385,6.394s1.879-4.16,2.383-6.396C1549.068,3.55,1549.87,0,1552.109,0
		c2.237,0,3.041,3.549,3.971,7.66c0.506,2.234,1.447,6.396,2.389,6.396c0.938,0,1.877-4.16,2.383-6.396
		c0.933-4.112,1.732-7.662,3.971-7.662c2.24,0,3.042,3.551,3.972,7.664c0.505,2.233,1.444,6.394,2.382,6.394s1.877-4.16,2.381-6.396
		c0.932-4.112,1.73-7.662,3.971-7.662c2.234,0,3.041,3.549,3.97,7.661c0.505,2.234,1.444,6.396,2.386,6.396
		c0.938,0,1.877-4.158,2.382-6.394c0.929-4.112,1.731-7.664,3.973-7.664c2.235,0,3.041,3.549,3.97,7.66
		c0.506,2.233,1.448,6.396,2.389,6.396c0.938,0,1.878-4.16,2.385-6.393c0.931-4.112,1.732-7.664,3.974-7.664
		c2.239,0,3.041,3.551,3.972,7.664c0.506,2.232,1.445,6.393,2.385,6.393c0.941,0,1.882-4.16,2.391-6.396
		C1612.627,3.55,1613.429,0,1615.67,0c2.239,0,3.042,3.549,3.973,7.661c0.507,2.235,1.445,6.396,2.388,6.396
		c0.939,0,1.883-4.16,2.388-6.395c0.93-4.112,1.732-7.662,3.973-7.662c2.241,0,3.045,3.551,3.977,7.664
		c0.506,2.232,1.443,6.393,2.385,6.393s1.881-4.16,2.387-6.393c0.932-4.112,1.732-7.664,3.975-7.664c2.239,0,3.044,3.55,3.975,7.662
		c0.506,2.232,1.446,6.395,2.387,6.395c0.943,0,1.885-4.158,2.393-6.393C1650.796,3.552,1651.6,0,1653.844,0s3.049,3.55,3.98,7.662
		c0.541,2.393,1.449,6.395,2.394,6.395v1.629H1660.204z"/>
</g>
</svg>
