<?xml version="1.0" encoding="utf-8"?>
<!-- Generator: Adobe Illustrator 16.0.0, SVG Export Plug-In . SVG Version: 6.00 Build 0)  -->
<!DOCTYPE svg PUBLIC "-//W3C//DTD SVG 1.1//EN" "http://www.w3.org/Graphics/SVG/1.1/DTD/svg11.dtd">
<svg version="1.1" id="Layer_1" xmlns="http://www.w3.org/2000/svg" xmlns:xlink="http://www.w3.org/1999/xlink" x="0px" y="0px"
	 width="95px" height="95px" viewBox="0 0 95 95" enable-background="new 0 0 95 95" xml:space="preserve">
<g>
	<g>
		<path fill="#FFFFFF" d="M93.988,48.037c-0.01,1.415-3.68,2.645-3.803,4.035c-0.135,1.392,3.256,3.27,3.008,4.639
			c-0.256,1.391-4.092,1.925-4.473,3.246c-0.382,1.369,2.598,3.85,2.104,5.148c-0.516,1.299-4.37,1.112-4.999,2.365
			c-0.619,1.252,1.854,4.244,1.123,5.428c-0.731,1.182-4.505,0.277-5.339,1.391c-0.848,1.113,1.041,4.521,0.103,5.543
			c-0.938,1.044-4.476-0.533-5.505,0.395c-1.021,0.951,0.217,4.64-0.896,5.474c-1.112,0.835-4.299-1.345-5.482-0.603
			c-1.186,0.719-0.641,4.567-1.887,5.194c-1.248,0.626-3.979-2.134-5.278-1.624c-1.3,0.512-1.463,4.384-2.813,4.777
			c-1.33,0.371-3.516-2.829-4.887-2.574c-1.359,0.255-2.247,4.036-3.639,4.174c-1.381,0.117-2.938-3.432-4.339-3.432
			c-1.401,0-2.958,3.549-4.329,3.432c-1.402-0.138-2.289-3.919-3.649-4.174c-1.371-0.255-3.557,2.945-4.886,2.574
			c-1.351-0.395-1.516-4.268-2.814-4.777c-1.299-0.51-4.031,2.25-5.278,1.624c-1.248-0.627-0.701-4.476-1.886-5.194
			c-1.186-0.742-4.371,1.438-5.484,0.603c-1.113-0.834,0.134-4.521-0.896-5.474c-1.031-0.928-4.566,0.649-5.505-0.395
			c-0.938-1.021,0.949-4.43,0.104-5.543c-0.835-1.112-4.608-0.209-5.339-1.391c-0.732-1.184,1.742-4.176,1.124-5.428
			c-0.619-1.253-4.495-1.066-5-2.365c-0.495-1.299,2.484-3.779,2.103-5.148c-0.381-1.32-4.216-1.855-4.474-3.246
			c-0.247-1.369,3.133-3.247,3.01-4.639c-0.124-1.393-3.793-2.62-3.793-4.035c0-1.403,3.669-2.632,3.793-4.012
			c0.123-1.403-3.257-3.293-3.01-4.649c0.257-1.392,4.092-1.926,4.474-3.259c0.382-1.357-2.598-3.827-2.103-5.125
			c0.505-1.31,4.38-1.125,5-2.365c0.618-1.252-1.855-4.244-1.124-5.427c0.731-1.195,4.504-0.29,5.339-1.403
			c0.845-1.125-1.042-4.511-0.104-5.543c0.938-1.032,4.474,0.534,5.505-0.405c1.021-0.939-0.206-4.626,0.896-5.461
			C19.77,9.54,22.956,11.743,24.141,11c1.185-0.731,0.639-4.581,1.886-5.206c1.247-0.627,3.979,2.122,5.278,1.623
			c1.299-0.51,1.464-4.395,2.814-4.777c1.329-0.383,3.515,2.83,4.886,2.574c1.36-0.254,2.247-4.035,3.649-4.163
			c1.371-0.127,2.927,3.433,4.329,3.433s2.958-3.56,4.339-3.433c1.392,0.127,2.277,3.908,3.639,4.163
			c1.382,0.256,3.557-2.957,4.887-2.574c1.352,0.382,1.525,4.267,2.813,4.777c1.299,0.499,4.041-2.25,5.278-1.623
			C69.188,6.42,68.643,10.27,69.827,11c1.185,0.742,4.381-1.461,5.483-0.614c1.112,0.846-0.125,4.522,0.896,5.461
			c1.03,0.951,4.567-0.626,5.517,0.405c0.938,1.032-0.949,4.418-0.113,5.543c0.834,1.113,4.606,0.208,5.339,1.403
			c0.731,1.183-1.742,4.174-1.113,5.427c0.619,1.241,4.483,1.055,4.989,2.365c0.494,1.299-2.484,3.769-2.104,5.125
			c0.381,1.333,4.217,1.867,4.473,3.259c0.248,1.356-3.133,3.247-3.008,4.649C90.309,45.405,93.988,46.634,93.988,48.037z"/>
		<path fill="#FFFFFF" d="M46.984,91.104c0.928,0,1.711,0.929,2.536,1.901c0.578,0.696,1.289,1.531,1.731,1.531v0.509l0.021-0.509
			c0.453-0.048,1.03-1.044,1.484-1.854c0.628-1.092,1.217-2.135,2.112-2.297c0.887-0.162,1.835,0.579,2.825,1.391
			c0.689,0.558,1.464,1.207,1.928,1.207c0.525-0.14,0.896-1.229,1.206-2.11c0.411-1.206,0.804-2.343,1.647-2.667
			c0.805-0.303,1.907,0.232,3.041,0.857c0.742,0.418,1.506,0.836,1.99,0.836c0.082,0,0.154-0.023,0.206-0.047
			c0.401-0.209,0.577-1.346,0.71-2.25c0.186-1.275,0.361-2.457,1.135-2.945c0.701-0.416,1.938-0.094,3.133,0.277
			c0.949,0.326,2.012,0.604,2.311,0.371c0.361-0.277,0.32-1.414,0.288-2.342c-0.052-1.275-0.093-2.48,0.589-3.084
			c0.329-0.324,0.803-0.464,1.505-0.464c0.505,0,1.072,0.069,1.617,0.162c0.517,0.047,1.053,0.116,1.496,0.116
			c0.545,0,0.763-0.094,0.854-0.187c0.299-0.348,0.051-1.461-0.154-2.366c-0.278-1.229-0.536-2.412,0.011-3.154
			c0.558-0.717,1.752-0.786,3.021-0.856c0.918-0.046,2.062-0.114,2.299-0.51c0.236-0.371-0.217-1.415-0.577-2.272
			c-0.505-1.184-0.979-2.272-0.566-3.107c0.402-0.812,1.566-1.113,2.804-1.415c0.888-0.208,2-0.486,2.166-0.904
			c0.164-0.417-0.476-1.366-0.979-2.133c-0.711-1.067-1.382-2.065-1.134-2.945c0.246-0.882,1.339-1.392,2.494-1.901
			c0.834-0.395,1.887-0.857,1.969-1.321c0.083-0.44-0.723-1.253-1.361-1.902c-0.896-0.903-1.74-1.763-1.658-2.688
			c0.094-0.904,1.062-1.603,2.104-2.319c0.752-0.533,1.701-1.206,1.701-1.67s-0.949-1.113-1.701-1.658
			c-1.031-0.719-2.01-1.403-2.094-2.308c-0.082-0.928,0.764-1.786,1.648-2.702c0.649-0.661,1.444-1.473,1.361-1.914
			c-0.082-0.44-1.123-0.916-1.969-1.298c-1.155-0.534-2.236-1.033-2.484-1.902c-0.258-0.893,0.413-1.89,1.124-2.957
			c0.517-0.766,1.146-1.716,0.979-2.123c-0.156-0.429-1.27-0.707-2.166-0.928c-1.236-0.301-2.392-0.58-2.804-1.402
			c-0.401-0.824,0.062-1.937,0.566-3.108c0.36-0.847,0.813-1.902,0.577-2.273c-0.236-0.395-1.381-0.452-2.299-0.51
			c-1.269-0.07-2.463-0.128-3.021-0.859c-0.547-0.742-0.289-1.913-0.011-3.154c0.205-0.904,0.453-2.017,0.154-2.354
			c-0.082-0.093-0.299-0.208-0.854-0.208c-0.443,0-0.979,0.069-1.496,0.139c-0.545,0.069-1.112,0.15-1.617,0.15
			c-0.702,0-1.176-0.15-1.505-0.452c-0.682-0.615-0.629-1.821-0.589-3.096c0.032-0.916,0.083-2.064-0.278-2.343
			c-0.309-0.232-1.359,0.059-2.318,0.371c-1.186,0.383-2.433,0.708-3.133,0.278c-0.773-0.486-0.949-1.681-1.136-2.934
			c-0.133-0.916-0.298-2.052-0.71-2.261C67.662,6.212,67.602,6.2,67.518,6.2c-0.483,0-1.258,0.417-2,0.823
			c-1.134,0.615-2.235,1.171-3.041,0.858c-0.845-0.336-1.235-1.473-1.647-2.667c-0.3-0.881-0.681-1.971-1.113-2.087
			c-0.557-0.023-1.329,0.615-2.011,1.171c-0.989,0.812-1.958,1.565-2.835,1.415c-0.886-0.174-1.483-1.206-2.112-2.308
			c-0.453-0.812-1.031-1.82-1.484-1.855l0,0c-0.463,0-1.176,0.847-1.752,1.531c-0.824,0.974-1.608,1.901-2.537,1.901
			c-0.928,0-1.711-0.928-2.536-1.913C43.882,2.397,43.16,1.55,42.718,1.55c-0.474,0.035-1.052,1.044-1.505,1.855
			c-0.628,1.102-1.216,2.133-2.113,2.308c-0.876,0.15-1.835-0.603-2.834-1.415c-0.681-0.557-1.454-1.183-1.918-1.183
			c-0.525,0.128-0.896,1.217-1.206,2.099c-0.412,1.195-0.804,2.331-1.649,2.667c-0.793,0.301-1.907-0.244-3.03-0.858
			c-0.753-0.406-1.516-0.823-2-0.823c-0.083,0-0.155,0.012-0.207,0.035c-0.402,0.209-0.566,1.345-0.711,2.261
			c-0.186,1.252-0.361,2.447-1.134,2.934c-0.701,0.429-1.938,0.104-3.133-0.29c-0.949-0.301-2.01-0.592-2.309-0.36
			c-0.361,0.267-0.32,1.416-0.289,2.343c0.052,1.275,0.093,2.481-0.588,3.096c-0.33,0.301-0.804,0.44-1.504,0.44
			c-0.505,0-1.072-0.07-1.619-0.139c-0.515-0.07-1.052-0.139-1.495-0.139c-0.546,0-0.763,0.116-0.846,0.208
			c-0.309,0.325-0.062,1.45,0.145,2.354c0.278,1.241,0.536,2.412-0.01,3.143c-0.557,0.742-1.752,0.8-3.021,0.87
			c-0.917,0.058-2.061,0.115-2.298,0.498c-0.237,0.383,0.216,1.438,0.577,2.285C8.526,26.91,9,28.023,8.588,28.847
			c-0.402,0.823-1.566,1.101-2.804,1.402c-0.886,0.221-2,0.499-2.165,0.917c-0.165,0.417,0.474,1.368,0.979,2.134
			c0.711,1.067,1.381,2.063,1.134,2.957c-0.248,0.869-1.34,1.368-2.495,1.89c-0.835,0.383-1.887,0.87-1.969,1.311
			c-0.083,0.441,0.711,1.252,1.36,1.914c0.887,0.904,1.731,1.774,1.649,2.702c-0.082,0.904-1.061,1.588-2.092,2.308
			c-0.752,0.533-1.701,1.194-1.701,1.658s0.948,1.137,1.701,1.67c1.031,0.718,2.01,1.415,2.092,2.319
			c0.083,0.902-0.762,1.785-1.649,2.688c-0.649,0.649-1.443,1.462-1.36,1.902c0.082,0.464,1.134,0.928,1.969,1.321
			c1.154,0.511,2.247,1.021,2.495,1.901c0.247,0.88-0.423,1.878-1.134,2.945c-0.505,0.767-1.144,1.716-0.979,2.133
			c0.166,0.418,1.279,0.696,2.165,0.904c1.237,0.302,2.402,0.604,2.804,1.415C9,68.075,8.526,69.165,8.021,70.348
			c-0.361,0.834-0.814,1.901-0.577,2.272c0.237,0.396,1.381,0.464,2.298,0.51c1.269,0.07,2.464,0.14,3.021,0.856
			c0.546,0.742,0.289,1.927,0.01,3.154c-0.206,0.905-0.453,2.02-0.145,2.366c0.083,0.093,0.299,0.187,0.856,0.187
			c0.433,0,0.969-0.069,1.484-0.116c0.546-0.093,1.113-0.162,1.619-0.162c0.701,0,1.175,0.14,1.504,0.464
			c0.681,0.604,0.64,1.809,0.588,3.084c-0.031,0.928-0.072,2.062,0.289,2.342c0.299,0.233,1.36-0.045,2.309-0.371
			c1.185-0.371,2.443-0.693,3.133-0.277c0.773,0.488,0.949,1.67,1.134,2.945c0.134,0.904,0.309,2.041,0.711,2.25
			c0.361,0.186,1.33-0.324,2.196-0.789c1.134-0.625,2.248-1.16,3.041-0.857c0.845,0.324,1.237,1.461,1.649,2.667
			c0.309,0.882,0.68,1.972,1.113,2.088c0.526,0,1.33-0.627,2.011-1.185c1-0.812,1.958-1.553,2.834-1.391
			c0.896,0.162,1.484,1.205,2.113,2.297c0.454,0.812,1.031,1.807,1.484,1.854l0,0c0.475,0,1.186-0.835,1.752-1.531
			C45.272,92.031,46.056,91.104,46.984,91.104z"/>
	</g>
	<g>
		<path fill="#FFFFFF" d="M93.988,48.037c-0.01,1.415-3.68,2.645-3.803,4.035c-0.135,1.392,3.256,3.27,3.008,4.639
			c-0.256,1.391-4.092,1.925-4.473,3.246c-0.382,1.369,2.598,3.85,2.104,5.148c-0.516,1.299-4.37,1.112-4.999,2.365
			c-0.619,1.252,1.854,4.244,1.123,5.428c-0.731,1.182-4.505,0.277-5.339,1.391c-0.848,1.113,1.041,4.521,0.103,5.543
			c-0.938,1.044-4.476-0.533-5.505,0.395c-1.021,0.951,0.217,4.64-0.896,5.474c-1.112,0.835-4.299-1.345-5.482-0.603
			c-1.186,0.719-0.641,4.567-1.887,5.194c-1.248,0.626-3.979-2.134-5.278-1.624c-1.3,0.512-1.463,4.384-2.813,4.777
			c-1.33,0.371-3.516-2.829-4.887-2.574c-1.359,0.255-2.247,4.036-3.639,4.174c-1.381,0.117-2.938-3.432-4.339-3.432
			c-1.401,0-2.958,3.549-4.329,3.432c-1.402-0.138-2.289-3.919-3.649-4.174c-1.371-0.255-3.557,2.945-4.886,2.574
			c-1.351-0.395-1.516-4.268-2.814-4.777c-1.299-0.51-4.031,2.25-5.278,1.624c-1.248-0.627-0.701-4.476-1.886-5.194
			c-1.186-0.742-4.371,1.438-5.484,0.603c-1.113-0.834,0.134-4.521-0.896-5.474c-1.031-0.928-4.566,0.649-5.505-0.395
			c-0.938-1.021,0.949-4.43,0.104-5.543c-0.835-1.112-4.608-0.209-5.339-1.391c-0.732-1.184,1.742-4.176,1.124-5.428
			c-0.619-1.253-4.495-1.066-5-2.365c-0.495-1.299,2.484-3.779,2.103-5.148c-0.381-1.32-4.216-1.855-4.474-3.246
			c-0.247-1.369,3.133-3.247,3.01-4.639c-0.124-1.393-3.793-2.62-3.793-4.035c0-1.403,3.669-2.632,3.793-4.012
			c0.123-1.403-3.257-3.293-3.01-4.649c0.257-1.392,4.092-1.926,4.474-3.259c0.382-1.357-2.598-3.827-2.103-5.125
			c0.505-1.31,4.38-1.125,5-2.365c0.618-1.252-1.855-4.244-1.124-5.427c0.731-1.195,4.504-0.29,5.339-1.403
			c0.845-1.125-1.042-4.511-0.104-5.543c0.938-1.032,4.474,0.534,5.505-0.405c1.021-0.939-0.206-4.626,0.896-5.461
			C19.77,9.54,22.956,11.743,24.141,11c1.185-0.731,0.639-4.581,1.886-5.206c1.247-0.627,3.979,2.122,5.278,1.623
			c1.299-0.51,1.464-4.395,2.814-4.777c1.329-0.383,3.515,2.83,4.886,2.574c1.36-0.254,2.247-4.035,3.649-4.163
			c1.371-0.127,2.927,3.433,4.329,3.433s2.958-3.56,4.339-3.433c1.392,0.127,2.277,3.908,3.639,4.163
			c1.382,0.256,3.557-2.957,4.887-2.574c1.352,0.382,1.525,4.267,2.813,4.777c1.299,0.499,4.041-2.25,5.278-1.623
			C69.188,6.42,68.643,10.27,69.827,11c1.185,0.742,4.381-1.461,5.483-0.614c1.112,0.846-0.125,4.522,0.896,5.461
			c1.03,0.951,4.567-0.626,5.517,0.405c0.938,1.032-0.949,4.418-0.113,5.543c0.834,1.113,4.606,0.208,5.339,1.403
			c0.731,1.183-1.742,4.174-1.113,5.427c0.619,1.241,4.483,1.055,4.989,2.365c0.494,1.299-2.484,3.769-2.104,5.125
			c0.381,1.333,4.217,1.867,4.473,3.259c0.248,1.356-3.133,3.247-3.008,4.649C90.309,45.405,93.988,46.634,93.988,48.037z"/>
		<path fill="#FFFFFF" d="M46.984,91.104c0.928,0,1.711,0.929,2.536,1.901c0.578,0.696,1.289,1.531,1.731,1.531v0.509l0.021-0.509
			c0.453-0.048,1.03-1.044,1.484-1.854c0.628-1.092,1.217-2.135,2.112-2.297c0.887-0.162,1.835,0.579,2.825,1.391
			c0.689,0.558,1.464,1.207,1.928,1.207c0.525-0.14,0.896-1.229,1.206-2.11c0.411-1.206,0.804-2.343,1.647-2.667
			c0.805-0.303,1.907,0.232,3.041,0.857c0.742,0.418,1.506,0.836,1.99,0.836c0.082,0,0.154-0.023,0.206-0.047
			c0.401-0.209,0.577-1.346,0.71-2.25c0.186-1.275,0.361-2.457,1.135-2.945c0.701-0.416,1.938-0.094,3.133,0.277
			c0.949,0.326,2.012,0.604,2.311,0.371c0.361-0.277,0.32-1.414,0.288-2.342c-0.052-1.275-0.093-2.48,0.589-3.084
			c0.329-0.324,0.803-0.464,1.505-0.464c0.505,0,1.072,0.069,1.617,0.162c0.517,0.047,1.053,0.116,1.496,0.116
			c0.545,0,0.763-0.094,0.854-0.187c0.299-0.348,0.051-1.461-0.154-2.366c-0.278-1.229-0.536-2.412,0.011-3.154
			c0.558-0.717,1.752-0.786,3.021-0.856c0.918-0.046,2.062-0.114,2.299-0.51c0.236-0.371-0.217-1.415-0.577-2.272
			c-0.505-1.184-0.979-2.272-0.566-3.107c0.402-0.812,1.566-1.113,2.804-1.415c0.888-0.208,2-0.486,2.166-0.904
			c0.164-0.417-0.476-1.366-0.979-2.133c-0.711-1.067-1.382-2.065-1.134-2.945c0.246-0.882,1.339-1.392,2.494-1.901
			c0.834-0.395,1.887-0.857,1.969-1.321c0.083-0.44-0.723-1.253-1.361-1.902c-0.896-0.903-1.74-1.763-1.658-2.688
			c0.094-0.904,1.062-1.603,2.104-2.319c0.752-0.533,1.701-1.206,1.701-1.67s-0.949-1.113-1.701-1.658
			c-1.031-0.719-2.01-1.403-2.094-2.308c-0.082-0.928,0.764-1.786,1.648-2.702c0.649-0.661,1.444-1.473,1.361-1.914
			c-0.082-0.44-1.123-0.916-1.969-1.298c-1.155-0.534-2.236-1.033-2.484-1.902c-0.258-0.893,0.413-1.89,1.124-2.957
			c0.517-0.766,1.146-1.716,0.979-2.123c-0.156-0.429-1.27-0.707-2.166-0.928c-1.236-0.301-2.392-0.58-2.804-1.402
			c-0.401-0.824,0.062-1.937,0.566-3.108c0.36-0.847,0.813-1.902,0.577-2.273c-0.236-0.395-1.381-0.452-2.299-0.51
			c-1.269-0.07-2.463-0.128-3.021-0.859c-0.547-0.742-0.289-1.913-0.011-3.154c0.205-0.904,0.453-2.017,0.154-2.354
			c-0.082-0.093-0.299-0.208-0.854-0.208c-0.443,0-0.979,0.069-1.496,0.139c-0.545,0.069-1.112,0.15-1.617,0.15
			c-0.702,0-1.176-0.15-1.505-0.452c-0.682-0.615-0.629-1.821-0.589-3.096c0.032-0.916,0.083-2.064-0.278-2.343
			c-0.309-0.232-1.359,0.059-2.318,0.371c-1.186,0.383-2.433,0.708-3.133,0.278c-0.773-0.486-0.949-1.681-1.136-2.934
			c-0.133-0.916-0.298-2.052-0.71-2.261C67.662,6.212,67.602,6.2,67.518,6.2c-0.483,0-1.258,0.417-2,0.823
			c-1.134,0.615-2.235,1.171-3.041,0.858c-0.845-0.336-1.235-1.473-1.647-2.667c-0.3-0.881-0.681-1.971-1.113-2.087
			c-0.557-0.023-1.329,0.615-2.011,1.171c-0.989,0.812-1.958,1.565-2.835,1.415c-0.886-0.174-1.483-1.206-2.112-2.308
			c-0.453-0.812-1.031-1.82-1.484-1.855l0,0c-0.463,0-1.176,0.847-1.752,1.531c-0.824,0.974-1.608,1.901-2.537,1.901
			c-0.928,0-1.711-0.928-2.536-1.913C43.882,2.397,43.16,1.55,42.718,1.55c-0.474,0.035-1.052,1.044-1.505,1.855
			c-0.628,1.102-1.216,2.133-2.113,2.308c-0.876,0.15-1.835-0.603-2.834-1.415c-0.681-0.557-1.454-1.183-1.918-1.183
			c-0.525,0.128-0.896,1.217-1.206,2.099c-0.412,1.195-0.804,2.331-1.649,2.667c-0.793,0.301-1.907-0.244-3.03-0.858
			c-0.753-0.406-1.516-0.823-2-0.823c-0.083,0-0.155,0.012-0.207,0.035c-0.402,0.209-0.566,1.345-0.711,2.261
			c-0.186,1.252-0.361,2.447-1.134,2.934c-0.701,0.429-1.938,0.104-3.133-0.29c-0.949-0.301-2.01-0.592-2.309-0.36
			c-0.361,0.267-0.32,1.416-0.289,2.343c0.052,1.275,0.093,2.481-0.588,3.096c-0.33,0.301-0.804,0.44-1.504,0.44
			c-0.505,0-1.072-0.07-1.619-0.139c-0.515-0.07-1.052-0.139-1.495-0.139c-0.546,0-0.763,0.116-0.846,0.208
			c-0.309,0.325-0.062,1.45,0.145,2.354c0.278,1.241,0.536,2.412-0.01,3.143c-0.557,0.742-1.752,0.8-3.021,0.87
			c-0.917,0.058-2.061,0.115-2.298,0.498c-0.237,0.383,0.216,1.438,0.577,2.285C8.526,26.91,9,28.023,8.588,28.847
			c-0.402,0.823-1.566,1.101-2.804,1.402c-0.886,0.221-2,0.499-2.165,0.917c-0.165,0.417,0.474,1.368,0.979,2.134
			c0.711,1.067,1.381,2.063,1.134,2.957c-0.248,0.869-1.34,1.368-2.495,1.89c-0.835,0.383-1.887,0.87-1.969,1.311
			c-0.083,0.441,0.711,1.252,1.36,1.914c0.887,0.904,1.731,1.774,1.649,2.702c-0.082,0.904-1.061,1.588-2.092,2.308
			c-0.752,0.533-1.701,1.194-1.701,1.658s0.948,1.137,1.701,1.67c1.031,0.718,2.01,1.415,2.092,2.319
			c0.083,0.902-0.762,1.785-1.649,2.688c-0.649,0.649-1.443,1.462-1.36,1.902c0.082,0.464,1.134,0.928,1.969,1.321
			c1.154,0.511,2.247,1.021,2.495,1.901c0.247,0.88-0.423,1.878-1.134,2.945c-0.505,0.767-1.144,1.716-0.979,2.133
			c0.166,0.418,1.279,0.696,2.165,0.904c1.237,0.302,2.402,0.604,2.804,1.415C9,68.075,8.526,69.165,8.021,70.348
			c-0.361,0.834-0.814,1.901-0.577,2.272c0.237,0.396,1.381,0.464,2.298,0.51c1.269,0.07,2.464,0.14,3.021,0.856
			c0.546,0.742,0.289,1.927,0.01,3.154c-0.206,0.905-0.453,2.02-0.145,2.366c0.083,0.093,0.299,0.187,0.856,0.187
			c0.433,0,0.969-0.069,1.484-0.116c0.546-0.093,1.113-0.162,1.619-0.162c0.701,0,1.175,0.14,1.504,0.464
			c0.681,0.604,0.64,1.809,0.588,3.084c-0.031,0.928-0.072,2.062,0.289,2.342c0.299,0.233,1.36-0.045,2.309-0.371
			c1.185-0.371,2.443-0.693,3.133-0.277c0.773,0.488,0.949,1.67,1.134,2.945c0.134,0.904,0.309,2.041,0.711,2.25
			c0.361,0.186,1.33-0.324,2.196-0.789c1.134-0.625,2.248-1.16,3.041-0.857c0.845,0.324,1.237,1.461,1.649,2.667
			c0.309,0.882,0.68,1.972,1.113,2.088c0.526,0,1.33-0.627,2.011-1.185c1-0.812,1.958-1.553,2.834-1.391
			c0.896,0.162,1.484,1.205,2.113,2.297c0.454,0.812,1.031,1.807,1.484,1.854l0,0c0.475,0,1.186-0.835,1.752-1.531
			C45.272,92.031,46.056,91.104,46.984,91.104z"/>
	</g>
</g>
</svg>
