<svg xmlns="http://www.w3.org/2000/svg" viewBox="0 0 212.65 212.61"><defs><style>.cls-1,.cls-10,.cls-12,.cls-13,.cls-14,.cls-2,.cls-3,.cls-4,.cls-5,.cls-6,.cls-7,.cls-8,.cls-9{isolation:isolate;}.cls-1{font-size:17.66px;}.cls-1,.cls-10,.cls-11,.cls-12,.cls-13,.cls-14,.cls-2,.cls-3,.cls-4,.cls-5,.cls-6,.cls-7,.cls-9{fill:#fff;}.cls-1,.cls-10,.cls-12,.cls-13,.cls-14,.cls-2,.cls-3,.cls-4,.cls-5,.cls-6,.cls-7,.cls-9{font-family:Montserrat-Regular, Montserrat;}.cls-2{font-size:17.73px;}.cls-3{font-size:17.66px;}.cls-4{font-size:17.55px;}.cls-5{font-size:17.61px;}.cls-6{font-size:17.69px;}.cls-7{font-size:17.67px;}.cls-10,.cls-9{font-size:10.54px;}.cls-10{letter-spacing:-0.06em;}.cls-12,.cls-13,.cls-14{font-size:19.5px;}.cls-13{letter-spacing:-0.03em;}.cls-14{letter-spacing:0.01em;}</style></defs><title>white-logo</title><g id="Layer_2" data-name="Layer 2"><g id="Layer_1-2" data-name="Layer 1"><g id="Layer_2-2" data-name="Layer 2"><g id="OBJECTS"><g id="_Group_" data-name=" Group "><text class="cls-1" transform="matrix(0.59, -0.81, 0.81, 0.59, 59.32, 80.72)">D</text><text class="cls-1" transform="translate(66.55 70.47) rotate(-40.33)">O</text><text class="cls-1" transform="translate(76.54 61.45) rotate(-23.88)">W</text><text class="cls-1" transform="translate(92.6 54.55) rotate(-7.31)">N</text><text class="cls-2" transform="translate(105.9 52.99) rotate(5.14)">T</text><text class="cls-1" transform="translate(114.82 53.42) rotate(16.82)">O</text><text class="cls-2" transform="translate(127.8 56.91) rotate(33.22)">W</text><text class="cls-3" transform="translate(142.33 66.72) rotate(49.46)">N</text></g><text class="cls-1" transform="matrix(0.63, 0.78, -0.78, 0.63, 51.34, 143.9)">F</text><text class="cls-4" transform="matrix(0.76, 0.64, -0.64, 0.76, 58.67, 152.98)">R</text><text class="cls-5" transform="matrix(0.89, 0.45, -0.45, 0.89, 69.88, 162.29)">O</text><text class="cls-6" transform="translate(84.25 169.23) rotate(14.45)">Y</text><text class="cls-7" transform="translate(96.72 172.44) rotate(2.29)">O</text><text class="cls-1" transform="translate(118.75 171.88) rotate(-16.04)">C</text><text class="cls-1" transform="matrix(0.88, -0.48, 0.48, 0.88, 132.07, 167.9)">A</text><text class="cls-1" transform="matrix(0.77, -0.64, 0.64, 0.77, 144.74, 160.72)">F</text><text class="cls-1" transform="translate(153.61 153.29) rotate(-50.14)">É</text><g class="cls-8"><text class="cls-9" transform="translate(81.09 137.71)">ES</text><text class="cls-10" transform="translate(94.57 137.71)">T</text><text class="cls-9" transform="translate(100.08 137.71)">. 1986</text></g><rect class="cls-11" x="93.82" y="10.78" width="0.91" height="7.97" transform="matrix(0.99, -0.13, 0.13, 0.99, -1.12, 12.43)"/><rect class="cls-11" x="117.92" y="193.91" width="0.91" height="7.97" transform="translate(-24.82 17.14) rotate(-7.5)"/><rect class="cls-11" x="70.53" y="17.02" width="0.91" height="7.97" transform="translate(-2.63 28.77) rotate(-22.5)"/><rect class="cls-11" x="141.21" y="187.67" width="0.91" height="7.97" transform="translate(-62.56 68.8) rotate(-22.5)"/><rect class="cls-11" x="49.65" y="29.07" width="0.91" height="7.97" transform="translate(-9.77 37.33) rotate(-37.5)"/><rect class="cls-11" x="162.09" y="175.61" width="0.91" height="7.97" transform="matrix(0.79, -0.61, 0.61, 0.79, -75.74, 136.06)"/><rect class="cls-11" x="32.6" y="46.12" width="0.91" height="7.97" transform="translate(-26.82 45.83) rotate(-52.5)"/><rect class="cls-11" x="179.15" y="158.57" width="0.91" height="7.97" transform="translate(-58.7 206.09) rotate(-52.5)"/><rect class="cls-11" x="20.55" y="67" width="0.91" height="7.97" transform="translate(-52.61 63.21) rotate(-67.49)"/><rect class="cls-11" x="191.21" y="137.7" width="0.91" height="7.97" transform="translate(-12.61 264.5) rotate(-67.49)"/><rect class="cls-11" x="17.01" y="141.21" width="7.97" height="0.91" transform="translate(-52.61 18.82) rotate(-22.5)"/><rect class="cls-11" x="187.67" y="70.52" width="7.97" height="0.91" transform="translate(-12.57 78.74) rotate(-22.5)"/><rect class="cls-11" x="29.07" y="162.09" width="7.97" height="0.91" transform="matrix(0.79, -0.61, 0.61, 0.79, -92.12, 53.71)"/><rect class="cls-11" x="175.61" y="49.65" width="7.97" height="0.91" transform="matrix(0.79, -0.61, 0.61, 0.79, 6.61, 119.68)"/><rect class="cls-11" x="46.12" y="179.14" width="7.97" height="0.91" transform="translate(-122.88 110.02) rotate(-52.5)"/><rect class="cls-11" x="158.57" y="32.59" width="7.97" height="0.91" transform="translate(37.38 141.89) rotate(-52.5)"/><rect class="cls-11" x="67" y="191.18" width="7.97" height="0.91" transform="translate(-133.23 183.88) rotate(-67.5)"/><rect class="cls-11" x="137.7" y="20.55" width="7.97" height="0.91" transform="translate(68.04 143.85) rotate(-67.49)"/><rect class="cls-11" x="90.28" y="197.43" width="7.97" height="0.91" transform="translate(-114.21 265.59) rotate(-82.52)"/><rect class="cls-11" x="114.4" y="14.3" width="7.97" height="0.91" transform="translate(88.34 130.21) rotate(-82.52)"/><path class="cls-11" d="M212.65,106.78v-.91H198.42V94.66l3.48-.46-.12-.91-3.36.44v-5.9h-17.9c-.07-.29-.15-.57-.23-.86l28.86-7.73-.24-.88L180,86.1a75.52,75.52,0,0,0-2.9-8.61l8.06-3.34-.35-.84-8.06,3.34a75.5,75.5,0,0,0-4-8.14l25.88-14.94-.46-.79L172.31,67.71a76.2,76.2,0,0,0-5.07-7.54l6.94-5.33-.56-.73-7,5.33a77.58,77.58,0,0,0-6-6.83l21.14-21.14-.65-.65L160,52a77.58,77.58,0,0,0-6.83-6l5.33-7-.73-.56-5.33,6.94a76.17,76.17,0,0,0-7.54-5.07l14.94-25.87-.79-.46L144.15,39.9a75.48,75.48,0,0,0-8.14-4l3.34-8.06-.84-.35-3.34,8.06a75.49,75.49,0,0,0-8.61-2.9l7.73-28.86-.88-.24-7.73,28.86a76.17,76.17,0,0,0-8.92-1.75L117.9,22l-.91-.12-1.14,8.69a77.58,77.58,0,0,0-9.06-.6V0h-.91V29.9a77.58,77.58,0,0,0-9.07.6l-1.14-8.69-.91.12,1.14,8.68A76.16,76.16,0,0,0,87,32.36L79.25,3.5l-.88.24L86.1,32.6a75.49,75.49,0,0,0-8.61,2.9l-3.34-8.06-.84.35,3.34,8.06a75.49,75.49,0,0,0-8.14,4L53.56,14l-.79.46L67.71,40.35a76.2,76.2,0,0,0-7.54,5.07l-5.33-6.94-.73.56,5.33,7a77.56,77.56,0,0,0-6.83,6L31.47,30.82l-.65.65L52,52.61a77.61,77.61,0,0,0-6,6.83l-7-5.33-.56.73,7,5.33a76.19,76.19,0,0,0-5.07,7.54L14.47,52.77l-.46.79L39.9,68.5a75.49,75.49,0,0,0-4,8.14l-8.1-3.33-.35.84,8.06,3.34a75.5,75.5,0,0,0-2.9,8.61L3.74,78.37l-.24.88L32.36,87c-.07.29-.16.57-.23.86H14.23v5.9l-3.36-.44-.12.91,3.48.46V105.9H0v.91H14.23V118l-3.48.46.12.91,3.36-.44v5.9h17.9c.07.29.15.57.23.86L3.5,133.4l.24.88,28.86-7.73a75.5,75.5,0,0,0,2.9,8.61l-8.06,3.34.35.84L35.86,136a75.51,75.51,0,0,0,4,8.14L14,159.09l.46.79,25.87-14.94a76.19,76.19,0,0,0,5.07,7.54l-6.94,5.33.56.73,7-5.33A77.61,77.61,0,0,0,52,160L30.82,181.19l.65.65L52.61,160.7a77.56,77.56,0,0,0,6.83,6l-5.33,7,.73.56,5.33-6.94a76.22,76.22,0,0,0,7.54,5.07L52.77,198.18l.79.46L68.5,172.76a75.49,75.49,0,0,0,8.14,4l-3.34,8.06.84.35,3.34-8.06A75.48,75.48,0,0,0,86.1,180l-7.73,28.86.88.24L87,180.29A76.2,76.2,0,0,0,95.9,182l-1.14,8.68.91.12,1.14-8.69a77.58,77.58,0,0,0,9.07.6v29.9h.91v-29.9a77.58,77.58,0,0,0,9.06-.6L117,190.8l.91-.12L116.76,182a76.21,76.21,0,0,0,8.92-1.75l7.73,28.86.88-.24L126.55,180a75.49,75.49,0,0,0,8.61-2.9l3.34,8.06.84-.35-3.34-8a75.49,75.49,0,0,0,8.14-4l14.94,25.88.79-.46-14.94-25.87a76.19,76.19,0,0,0,7.54-5.07l5.33,6.94.73-.56-5.33-7a77.56,77.56,0,0,0,6.83-6l21.14,21.14.65-.65L160.69,160a77.59,77.59,0,0,0,6-6.83l7,5.33.56-.73-6.94-5.33a76.19,76.19,0,0,0,5.07-7.54l25.87,14.94.46-.79-25.88-14.94a75.5,75.5,0,0,0,4-8.14l8.06,3.34.35-.84-8.06-3.34a75.52,75.52,0,0,0,2.9-8.61l28.86,7.73.24-.88-28.86-7.73c.07-.29.16-.57.23-.86h17.9v-5.9l3.36.44.12-.91-3.48-.46V106.78Zm-15.15,0V123.9H15.15V88.76H197.51v18Zm-18.1,18.65-.24.88a74.6,74.6,0,0,1-2.86,8.5l-.35.84a74.59,74.59,0,0,1-4,8l-.45.79a75.26,75.26,0,0,1-5,7.44l-.56.72a76.66,76.66,0,0,1-5.94,6.8l-.32.33-.33.32a76.64,76.64,0,0,1-6.74,5.91l-.72.56a75.29,75.29,0,0,1-7.44,5l-.79.45a74.61,74.61,0,0,1-8,4l-.84.35a74.61,74.61,0,0,1-8.5,2.86l-.88.24a75.29,75.29,0,0,1-8.8,1.73l-.91.11a76.62,76.62,0,0,1-8.95.59h-.91a76.62,76.62,0,0,1-8.95-.59l-.91-.11a75.29,75.29,0,0,1-8.8-1.73l-.88-.24a74.62,74.62,0,0,1-8.5-2.86L77,176a74.62,74.62,0,0,1-8-4l-.79-.45a75.29,75.29,0,0,1-7.44-5L60,166a76.66,76.66,0,0,1-6.74-6l-.33-.32-.32-.33a76.63,76.63,0,0,1-5.91-6.74l-.56-.72a75.29,75.29,0,0,1-5-7.44l-.45-.8a74.59,74.59,0,0,1-4-8l-.35-.84a74.59,74.59,0,0,1-2.86-8.5c-.08-.29-.17-.59-.24-.88s-.12-.41-.17-.62h2.7c.07.28.15.55.23.83a72.07,72.07,0,0,0,2.76,8.18l.35.84a72.06,72.06,0,0,0,3.83,7.73l.45.79a72.69,72.69,0,0,0,4.81,7.16l.56.72a74,74,0,0,0,5.69,6.49l.32.33.33.32a74,74,0,0,0,6.49,5.69l.72.56a72.66,72.66,0,0,0,7.16,4.81l.79.45A72.06,72.06,0,0,0,78,173.55l.84.35A72,72,0,0,0,87,176.65l.88.24a72.66,72.66,0,0,0,8.47,1.66l.91.11a74,74,0,0,0,8.61.57h.91a74,74,0,0,0,8.61-.57l.91-.11a72.66,72.66,0,0,0,8.47-1.66l.88-.24a72,72,0,0,0,8.18-2.76l.84-.35a72,72,0,0,0,7.73-3.83l.8-.45a72.65,72.65,0,0,0,7.16-4.81l.72-.56a74,74,0,0,0,6.49-5.69l.33-.32.32-.33a74,74,0,0,0,5.69-6.49l.56-.72a72.69,72.69,0,0,0,4.81-7.16l.45-.79a72,72,0,0,0,3.83-7.73l.35-.84a72.05,72.05,0,0,0,2.76-8.18c.08-.28.16-.55.23-.83h2.7a5.79,5.79,0,0,0-.19.63Zm-140.92-.62H61.34a48.63,48.63,0,0,0,90,0H176l-.16.6a71.14,71.14,0,0,1-2.72,8.06l-.35.84a71.14,71.14,0,0,1-3.78,7.62l-.45.79a71.78,71.78,0,0,1-4.74,7.06l-.56.72a73,73,0,0,1-5.61,6.4l-.32.33-.33.32a73.08,73.08,0,0,1-6.4,5.61l-.72.56a71.79,71.79,0,0,1-7.06,4.74l-.8.45a71.13,71.13,0,0,1-7.62,3.78l-.84.35a71.14,71.14,0,0,1-8.06,2.72l-.88.24a71.77,71.77,0,0,1-8.35,1.64l-.91.11a73.11,73.11,0,0,1-8.49.56h-.91a73.1,73.1,0,0,1-8.49-.56l-.91-.11A71.75,71.75,0,0,1,88.13,176l-.88-.24A71.14,71.14,0,0,1,79.19,173l-.84-.35a71.13,71.13,0,0,1-7.62-3.78l-.79-.45a71.75,71.75,0,0,1-7.06-4.74l-.72-.56a73.08,73.08,0,0,1-6.4-5.61l-.33-.32-.32-.33a73.08,73.08,0,0,1-5.61-6.4l-.56-.72a71.79,71.79,0,0,1-4.74-7.06l-.45-.79A71.15,71.15,0,0,1,40,134.31l-.35-.84a71.12,71.12,0,0,1-2.72-8.06l-.16-.6Zm111.69.32a47.59,47.59,0,0,1-2.38,4.76l-3.17-1.83q.9-1.58,1.68-3.25h3.1Zm-79,7.74-2.9,2.23a47.9,47.9,0,0,1-3-4.41l3.17-1.83A44.23,44.23,0,0,0,71.17,132.87Zm.56.72a44.44,44.44,0,0,0,3.2,3.63l-2.59,2.59a48.11,48.11,0,0,1-3.51-4Zm3.85,4.27A44.43,44.43,0,0,0,79.22,141L77,143.94a48.13,48.13,0,0,1-4-3.5Zm4.36,3.75a44.23,44.23,0,0,0,4,2.68l-1.83,3.17a47.89,47.89,0,0,1-4.42-2.94Zm4.82,3.13a43.92,43.92,0,0,0,4.33,2.15l-1.4,3.38a47.56,47.56,0,0,1-4.76-2.36Zm5.18,2.49a43.7,43.7,0,0,0,4.58,1.55l-.95,3.53a47.3,47.3,0,0,1-5-1.71ZM95.4,149a43.78,43.78,0,0,0,4.74.93l-.48,3.63a47.41,47.41,0,0,1-5.21-1Zm5.65,1a44.27,44.27,0,0,0,4.82.32V154a47.92,47.92,0,0,1-5.3-.35Zm5.74.32a44.27,44.27,0,0,0,4.82-.32l.48,3.63a47.92,47.92,0,0,1-5.3.35Zm6.21,3.2-.48-3.63a43.76,43.76,0,0,0,4.74-.93l.95,3.54a47.41,47.41,0,0,1-5.21,1.08Zm6.09-1.27-.95-3.53a43.7,43.7,0,0,0,4.58-1.55l1.4,3.38a47.29,47.29,0,0,1-5,1.76Zm5.88-2-1.4-3.38a43.89,43.89,0,0,0,4.33-2.15l1.83,3.17a47.55,47.55,0,0,1-4.73,2.37Zm5.55-2.82-1.83-3.17a44.26,44.26,0,0,0,4-2.68l2.23,2.9a47.89,47.89,0,0,1-4.41,3Zm5.14-3.51-2.23-2.9a44.43,44.43,0,0,0,3.64-3.18l2.59,2.59a48.11,48.11,0,0,1-4,3.51Zm4.65-4.14-2.59-2.59a44.44,44.44,0,0,0,3.2-3.63l2.9,2.23a48.12,48.12,0,0,1-3.51,4Zm4.08-4.71-2.9-2.23a44.23,44.23,0,0,0,2.7-4l3.17,1.83a47.9,47.9,0,0,1-3,4.42Zm-38.06,14.39a43.21,43.21,0,0,1-39-24.67h78a43.21,43.21,0,0,1-39,24.69ZM68,128.06l-3.17,1.83a47.59,47.59,0,0,1-2.38-4.76l.77-.32h3.1Q67.11,126.47,68,128.06ZM33.24,87.22l.24-.88a74.59,74.59,0,0,1,2.86-8.5L36.7,77a74.61,74.61,0,0,1,4-8l.45-.79a75.29,75.29,0,0,1,5-7.44L46.7,60a76.63,76.63,0,0,1,5.91-6.74l.32-.33.33-.32A76.66,76.66,0,0,1,60,46.7l.72-.56a75.3,75.3,0,0,1,7.44-5l.79-.45a74.59,74.59,0,0,1,8-4l.84-.35a74.64,74.64,0,0,1,8.5-2.86l.88-.24A75.27,75.27,0,0,1,96,31.52l.91-.11a76.64,76.64,0,0,1,8.95-.59h.91a76.64,76.64,0,0,1,8.95.59l.91.11a75.27,75.27,0,0,1,8.8,1.73l.88.24a74.65,74.65,0,0,1,8.5,2.86l.84.35a74.61,74.61,0,0,1,8,4l.79.45a75.27,75.27,0,0,1,7.44,5l.72.56a76.66,76.66,0,0,1,6.74,5.91l.33.32.32.33A76.66,76.66,0,0,1,166,60l.56.72a75.27,75.27,0,0,1,5,7.44l.45.8a74.59,74.59,0,0,1,4,8l.35.84a74.59,74.59,0,0,1,2.86,8.5c.08.29.17.59.24.88s.12.41.17.62h-2.7c-.07-.28-.15-.55-.23-.83a72,72,0,0,0-2.76-8.18l-.35-.84a72,72,0,0,0-3.83-7.73l-.45-.8a72.68,72.68,0,0,0-4.81-7.16l-.56-.72A74,74,0,0,0,158.25,55l-.32-.33-.33-.32a74,74,0,0,0-6.49-5.69l-.72-.56a72.68,72.68,0,0,0-7.16-4.81l-.8-.45a72.05,72.05,0,0,0-7.73-3.83l-.84-.35A72,72,0,0,0,125.64,36l-.88-.24a72.71,72.71,0,0,0-8.47-1.66l-.91-.11a74,74,0,0,0-8.61-.57h-.91a74,74,0,0,0-8.61.57l-.91.11a72.7,72.7,0,0,0-8.47,1.66L87,36a72,72,0,0,0-8.18,2.76L78,39.1a72.06,72.06,0,0,0-7.73,3.83l-.79.45A72.69,72.69,0,0,0,62.3,48.2l-.72.56a74,74,0,0,0-6.49,5.69l-.33.32-.32.33a74,74,0,0,0-5.69,6.49l-.56.72a72.7,72.7,0,0,0-4.81,7.16l-.45.8A72,72,0,0,0,39.1,78l-.35.84A72.06,72.06,0,0,0,36,87c-.08.28-.16.55-.23.83h-2.7C33.12,87.63,33.19,87.43,33.24,87.22Zm140.92.62H151.31a48.63,48.63,0,0,0-90,0H36.72l.16-.6a71.13,71.13,0,0,1,2.72-8.06l.35-.84a71.12,71.12,0,0,1,3.78-7.62l.45-.8a71.79,71.79,0,0,1,4.74-7.06l.56-.72a73.11,73.11,0,0,1,5.61-6.4l.32-.33.33-.32a73.1,73.1,0,0,1,6.4-5.61l.72-.56a71.76,71.76,0,0,1,7.06-4.74l.79-.45A71.13,71.13,0,0,1,78.33,40l.84-.35a71.12,71.12,0,0,1,8.06-2.72l.88-.24A71.77,71.77,0,0,1,96.48,35l.91-.11a73.06,73.06,0,0,1,8.49-.56h.91a73.06,73.06,0,0,1,8.49.56l.91.11a71.79,71.79,0,0,1,8.35,1.64l.88.24a71.13,71.13,0,0,1,8.06,2.72l.84.35a71.13,71.13,0,0,1,7.62,3.78l.79.45a71.77,71.77,0,0,1,7.06,4.74l.72.56a73.1,73.1,0,0,1,6.4,5.61l.33.32.32.33a73.06,73.06,0,0,1,5.61,6.4l.56.72a71.78,71.78,0,0,1,4.74,7.06l.45.8a71.13,71.13,0,0,1,3.78,7.62l.35.84a71.12,71.12,0,0,1,2.72,8.06l.16.6Zm-111.8-.08A47.55,47.55,0,0,1,64.73,83l3.17,1.83q-.83,1.49-1.56,3H62.56ZM141.62,80l2.9-2.23a47.91,47.91,0,0,1,3,4.45L144.31,84A44.2,44.2,0,0,0,141.62,80Zm-.57-.72a44.41,44.41,0,0,0-3.2-3.66L140.44,73A48.12,48.12,0,0,1,144,77ZM137.21,75a44.44,44.44,0,0,0-3.65-3.21l2.23-2.9a48.13,48.13,0,0,1,4,3.53Zm-4.37-3.78a44.23,44.23,0,0,0-4-2.71l1.83-3.17a47.91,47.91,0,0,1,4.44,3ZM128,68a43.89,43.89,0,0,0-4.36-2.17L125,62.47a47.85,47.85,0,0,1,4.79,2.36Zm-3.81-5.88-1.39,3.36a43.65,43.65,0,0,0-4.61-1.57l.94-3.51-.88-.24-.94,3.5a43.78,43.78,0,0,0-4.78-.94l.47-3.6-.91-.12-.47,3.6a44.27,44.27,0,0,0-4.86-.32V58.64h-.91v3.63a44.27,44.27,0,0,0-4.86.32l-.47-3.6-.91.12.47,3.6a43.8,43.8,0,0,0-4.78.94l-.94-3.5-.88.24.94,3.51a43.68,43.68,0,0,0-4.61,1.57L88.45,62.1l-.79.33a47.39,47.39,0,0,1,37.35,0Zm-36.61.35L89,65.82A43.91,43.91,0,0,0,84.64,68l-1.83-3.17a47.84,47.84,0,0,1,4.79-2.37ZM82,65.28l1.83,3.17a44.2,44.2,0,0,0-4,2.71l-2.23-2.9A47.91,47.91,0,0,1,82,65.28Zm-5.15,3.54,2.23,2.9a44.42,44.42,0,0,0-3.65,3.21l-2.59-2.59a48.12,48.12,0,0,1,4-3.52ZM72.21,73l2.59,2.59a44.41,44.41,0,0,0-3.2,3.66L68.7,77A48.1,48.1,0,0,1,72.21,73Zm-4.08,4.74L71,80a44.22,44.22,0,0,0-2.69,4l-3.17-1.83A47.92,47.92,0,0,1,68.13,77.74Zm38.19-14.56a43.21,43.21,0,0,1,39,24.67h-78a43.21,43.21,0,0,1,39-24.68ZM144.76,84.8l3.17-1.8a47.53,47.53,0,0,1,2.37,4.78l-.2.08h-3.78Q145.6,86.29,144.76,84.8Z"/><path class="cls-11" d="M114.28,87.94c2.58,1.46,3.62-.16,3.9-.86,0-.09,3.15-8.78,3.15-8.78l2.14-2a1,1,0,0,0,.94-.23.89.89,0,0,0,.06-1.26l-.06-.06a1.05,1.05,0,0,0-1.41,0,.88.88,0,0,0-.24.88l-1.86,1.74.62-2.21a1,1,0,0,0,.69-.64.93.93,0,0,0-.67-1.13h0a1,1,0,0,0-1.22.66.88.88,0,0,0,.26.87l-.66,2.35-.75-2.52a.88.88,0,0,0,.25-.88,1,1,0,0,0-1.23-.65.93.93,0,0,0-.71,1.11v0a1,1,0,0,0,.7.63l.69,2.32-3.34,6.1-.64-.6-.74-.7a11.62,11.62,0,0,0-1.3-3.77,1.76,1.76,0,0,0,.37-1.07,1.93,1.93,0,0,0-2-1.86h-.31l-1.13-1.05v-.19a2.44,2.44,0,0,0-4.86,0v.19l-1.13,1.05h-.31a1.93,1.93,0,0,0-2,1.86h0a1.76,1.76,0,0,0,.37,1.07,11.62,11.62,0,0,0-1.3,3.77l-.74.7-.64.6-3.34-6.1L96.51,75a1,1,0,0,0,.7-.63.93.93,0,0,0-.66-1.14h0a1,1,0,0,0-1.23.65.88.88,0,0,0,.25.88l-.75,2.52-.66-2.35a.88.88,0,0,0,.26-.87,1,1,0,0,0-1.22-.66.93.93,0,0,0-.72,1.1v0a1,1,0,0,0,.69.64l.62,2.21L91.9,75.64a.88.88,0,0,0-.24-.88,1.05,1.05,0,0,0-1.41,0A.89.89,0,0,0,90.19,76l.06.06a1,1,0,0,0,.94.23l2.14,2s3.12,8.68,3.15,8.78c.28.7,1.32,2.33,3.9.86"/><path class="cls-11" d="M180.72,90.85H17.24v31H195.41v-31Zm13.77.91v29.12H18.16V91.77H194.49Z"/><g class="cls-8"><text class="cls-12" transform="translate(33.91 112.87)">FR</text><text class="cls-13" transform="translate(59.22 112.87)">O</text><text class="cls-12" transform="translate(74.47 112.87)">G</text><text class="cls-14" transform="translate(89.08 112.87)">L</text><text class="cls-12" transform="translate(99.61 112.87)">ANDERS</text></g></g></g></g></g></svg>